<svg width="212" height="200" viewBox="0 0 212 200" fill="none" xmlns="http://www.w3.org/2000/svg">
<g clip-path="url(#clip0_22_48)">
<path d="M130.01 118.724C163.698 111.055 184.595 78.553 176.591 46.2718C168.587 13.9905 134.669 -6.0327 100.98 1.63649C91.1938 3.87449 82.1101 8.32811 74.4907 14.6239C66.8712 20.9197 60.9381 28.8742 57.1886 37.8205L57.8637 38.0803C61.5696 29.2374 67.4341 21.3749 74.9653 15.1518C82.4966 8.9288 91.4751 4.52666 101.148 2.31452C134.446 -5.26577 167.973 14.5258 175.883 46.4329C183.794 78.34 163.14 110.466 129.842 118.046C120.573 120.187 110.913 120.239 101.619 118.199C92.3261 116.159 83.653 112.082 76.2813 106.288L75.8225 106.828C83.2804 112.69 92.055 116.815 101.457 118.879C110.859 120.943 120.633 120.89 130.01 118.724V118.724Z" fill="#E6E6E6"/>
<path d="M16.5851 84.5873H66.9182C69.647 84.5873 71.8672 81.6316 71.8672 77.999V28.447C71.8672 24.8143 69.647 21.8587 66.9182 21.8587L5.61554 21.8587C2.88677 21.8587 0.666575 24.8143 0.666575 28.447V63.3958C0.666564 75.0809 7.80754 84.5873 16.5851 84.5873Z" fill="#F2F2F2"/>
<path d="M107.752 192.29H103.738L99.8374 163.361H108.929L107.752 192.29Z" fill="#A0616A"/>
<path d="M109.063 189.656L102.65 189.289V191.922L96.5532 195.957C96.252 196.156 96.0252 196.442 95.9059 196.774C95.7866 197.105 95.7809 197.464 95.8899 197.799C95.9988 198.134 96.2165 198.427 96.5113 198.634C96.806 198.842 97.1624 198.954 97.5284 198.954H105.163L106.479 196.35L106.993 198.954H109.871L109.063 189.656Z" fill="#2F2E41"/>
<path d="M167.354 183.115L163.692 184.69L147.772 159.827L156.067 156.261L167.354 183.115Z" fill="#A0616A"/>
<path d="M167.424 180.198L161.416 182.379L162.541 184.781L158.703 190.854C158.513 191.154 158.429 191.504 158.461 191.853C158.494 192.203 158.643 192.533 158.885 192.796C159.127 193.058 159.451 193.24 159.809 193.314C160.167 193.388 160.54 193.35 160.873 193.207L167.839 190.211L167.927 187.319L169.508 189.493L172.134 188.364L167.424 180.198Z" fill="#2F2E41"/>
<path d="M138.474 100.241L119.907 97.8288C119.907 97.8288 96.0382 150.725 97.0376 177.775L112.184 179.565C112.184 179.565 112.069 168.473 111.229 167.625C110.389 166.776 109.352 167.855 110.389 165.429C111.425 163.002 112.257 162.389 111.012 161.205C109.767 160.022 124.497 139.326 124.497 139.326C124.497 139.326 147.675 167.261 148.919 168.056C150.163 168.85 151.576 169.026 150.766 171.024C149.955 173.022 151.407 176.851 151.407 176.851C151.407 176.851 160.541 175.523 164.273 166.783C164.273 166.783 149.184 140.442 147.814 140.005C146.444 139.567 145.822 141.753 146.444 139.567C147.066 137.382 148.31 138.177 147.066 137.382C146.228 136.87 145.322 136.469 144.371 136.19L139.545 123.963C143.265 115.785 143.027 107.87 138.474 100.241Z" fill="#2F2E41"/>
<path d="M138.652 86.2439L137.971 92.3005L138.372 100.243L120.013 98.1529L118.288 86.2439L120.486 86.2645L138.652 86.2439Z" fill="#FFB6B6"/>
<path d="M123.036 66.6804L129.946 61.4535L133.572 61.2514L138.954 64.5551L140.272 70.9972L143.389 78.2516L138.817 97.8288C138.817 97.8288 138.389 99.2336 139.512 99.4023C140.636 99.5711 140.501 101.642 140.501 101.642C140.501 101.642 140.272 103.437 141.363 103.595C142.454 103.753 145.363 103.753 142.818 106.889C140.272 110.025 119.655 98.1388 119.655 98.1388L117.214 83.4604C117.214 83.4604 111.543 76.1615 117.65 71.9812L123.036 66.6804Z" fill="#00751B"/>
<path d="M153.199 111.13C153.503 110.766 153.721 110.342 153.836 109.889C153.951 109.436 153.961 108.964 153.865 108.506C153.769 108.049 153.57 107.617 153.281 107.242C152.992 106.866 152.621 106.556 152.194 106.332L143.503 78.3841L138.068 81.0057L147.533 107.794C147.189 108.507 147.13 109.316 147.367 110.068C147.605 110.82 148.121 111.462 148.82 111.873C149.518 112.284 150.349 112.436 151.157 112.299C151.964 112.162 152.69 111.746 153.199 111.13H153.199Z" fill="#A0616A"/>
<path d="M137.706 64.2965C137.706 64.2965 139.259 63.5054 140.322 66.9288C141.173 69.6695 148.075 85.9941 148.163 89.9631C148.731 90.0785 149.243 90.3716 149.618 90.7964C149.993 91.2213 150.21 91.7535 150.235 92.3095L141.7 93.4054C140.209 92.2001 139.818 90.5722 140.395 90.089L138.542 85.2394L130.811 69.8098L136.572 64.8493L137.706 64.2965Z" fill="#00751B"/>
<path d="M92.1036 101.943C91.9934 101.489 91.9885 101.017 92.0892 100.56C92.19 100.104 92.3939 99.6742 92.6867 99.3015C92.9796 98.9287 93.3541 98.6221 93.7839 98.4031C94.2138 98.1841 94.6886 98.0581 95.1747 98.0339L115.112 76.2156L119.341 81.0511L98.7176 101.283C98.7058 102.068 98.3938 102.822 97.8407 103.402C97.2876 103.982 96.5318 104.347 95.7166 104.428C94.9013 104.509 94.0832 104.301 93.4173 103.843C92.7515 103.385 92.284 102.709 92.1036 101.943V101.943Z" fill="#A0616A"/>
<path d="M127.208 66.1352C127.208 66.1352 126.165 64.7782 123.661 67.4246C121.658 69.5433 108.066 81.4023 106.196 84.9445C105.632 84.8131 105.038 84.8654 104.508 85.093C103.978 85.3206 103.542 85.7107 103.269 86.2018L110.47 90.7264C112.359 90.2576 113.446 88.9519 113.144 88.2772L117.003 84.6724L130.937 73.9634L127.981 67.1033L127.208 66.1352Z" fill="#00751B"/>
<path d="M123.671 61.7142C122.871 60.6131 129.784 58.0101 131.123 58.5049C133.868 59.5259 137.112 61.7073 139.636 62.0174C139.587 61.0578 139.677 60.0963 139.901 59.16C140.174 60.1113 140.443 61.0661 140.716 62.0209C143.098 61.6968 147.065 57.8707 146.091 49.0442C145.687 45.4097 142.905 41.5453 133.814 40.1131C125.421 38.7959 123.373 44.7651 122.588 48.6643C120.798 57.5188 121.682 61.5783 123.671 61.7142Z" fill="#2F2E41"/>
<path d="M131.484 58.5179C127.331 58.5179 123.964 55.2914 123.964 51.3114C123.964 47.3313 127.331 44.1049 131.484 44.1049C135.638 44.1049 139.005 47.3313 139.005 51.3114C139.005 55.2914 135.638 58.5179 131.484 58.5179Z" fill="#A0616A"/>
<path d="M121.362 48.7399L124.965 49.2674C126.553 48.3139 127.158 46.8991 127.234 45.2359L126.872 49.5467L128.594 49.7988C129.717 49.0804 130.22 48.3023 129.917 47.4471L129.706 49.9618C134.296 51.5463 138.744 52.7149 142.5 51.8353C142.694 50.622 142.636 49.384 142.33 48.1921C142.025 47.0002 141.477 45.8777 140.718 44.8886C139.96 43.8996 139.005 43.0634 137.91 42.4278C136.814 41.7922 135.598 41.3696 134.332 41.1842L132.478 40.9126C131.211 40.7272 129.919 40.7826 128.676 41.0756C127.432 41.3686 126.26 41.8935 125.228 42.6203C124.196 43.3471 123.323 44.2617 122.66 45.3117C121.997 46.3617 121.556 47.5266 121.362 48.7399V48.7399Z" fill="#2F2E41"/>
<path d="M187.465 192.298C187.674 192.307 187.881 192.255 188.058 192.147C188.235 192.04 188.373 191.883 188.453 191.698C188.534 191.513 188.554 191.309 188.509 191.113C188.465 190.917 188.358 190.739 188.205 190.602L188.135 190.336C188.144 190.315 188.153 190.293 188.162 190.272C188.373 189.795 188.726 189.389 189.177 189.103C189.628 188.818 190.157 188.667 190.697 188.669C191.238 188.671 191.765 188.826 192.214 189.114C192.663 189.403 193.013 189.812 193.22 190.29C194.047 192.199 195.1 194.111 195.359 196.129C195.473 197.021 195.425 197.926 195.217 198.802C197.159 194.741 198.168 190.328 198.175 185.861C198.175 184.74 198.11 183.62 197.98 182.506C197.873 181.592 197.723 180.686 197.533 179.785C196.491 174.901 194.256 170.322 191.009 166.426C189.438 165.605 188.167 164.342 187.369 162.807C187.079 162.255 186.875 161.666 186.761 161.058C186.938 161.081 187.43 158.494 187.296 158.335C187.543 157.976 187.985 157.797 188.255 157.447C189.596 155.704 191.445 156.008 192.41 158.377C194.471 159.374 194.491 161.027 193.226 162.617C192.422 163.629 192.311 164.998 191.605 166.081C191.678 166.17 191.753 166.257 191.826 166.346C193.154 167.982 194.311 169.739 195.281 171.591C195.045 169.516 195.327 167.417 196.103 165.466C196.89 163.648 198.364 162.117 199.662 160.545C201.221 158.657 204.418 159.481 204.693 161.874C204.696 161.897 204.698 161.92 204.701 161.944C204.508 162.048 204.319 162.159 204.135 162.276C203.903 162.424 203.723 162.636 203.619 162.884C203.515 163.132 203.492 163.405 203.552 163.666C203.612 163.927 203.754 164.164 203.957 164.347C204.161 164.53 204.417 164.65 204.693 164.69L204.721 164.695C204.653 165.36 204.531 166.02 204.358 166.669C206.023 172.84 202.428 175.088 197.294 175.189C197.181 175.244 197.071 175.3 196.957 175.353C197.932 178 198.544 180.757 198.776 183.555C198.908 185.206 198.9 186.865 198.753 188.514L198.762 188.456C199.134 186.621 200.155 184.966 201.653 183.77C203.878 182.018 207.021 181.374 209.421 179.966C209.677 179.809 209.973 179.725 210.276 179.724C210.579 179.724 210.877 179.806 211.132 179.962C211.388 180.118 211.592 180.34 211.721 180.603C211.849 180.867 211.896 181.16 211.856 181.447C211.853 181.468 211.849 181.488 211.846 181.509C211.488 181.649 211.14 181.809 210.803 181.991C210.61 182.095 210.421 182.206 210.237 182.323C210.005 182.471 209.825 182.683 209.721 182.931C209.617 183.179 209.594 183.452 209.654 183.713C209.714 183.974 209.856 184.211 210.059 184.394C210.263 184.577 210.519 184.697 210.795 184.737L210.823 184.742C210.844 184.744 210.861 184.747 210.881 184.75C210.27 186.149 209.412 187.436 208.345 188.556C207.303 193.943 202.831 194.454 198.047 192.886H198.044C197.519 195.071 196.759 197.199 195.775 199.234H187.668C187.639 199.148 187.613 199.058 187.586 198.972C188.337 199.017 189.09 198.974 189.83 198.844C189.228 198.137 188.627 197.424 188.025 196.717C188.012 196.704 187.999 196.69 187.987 196.675C187.682 196.313 187.374 195.954 187.069 195.592L187.069 195.592C187.053 194.482 187.186 193.375 187.464 192.298L187.465 192.298Z" fill="#F2F2F2"/>
<path d="M211.567 199.893L1.82957 200C1.71473 200 1.60461 199.956 1.5234 199.878C1.4422 199.801 1.39658 199.695 1.39658 199.585C1.39658 199.475 1.4422 199.37 1.5234 199.292C1.60461 199.214 1.71473 199.17 1.82957 199.17L211.567 199.063C211.681 199.063 211.791 199.107 211.872 199.185C211.953 199.263 211.999 199.368 211.999 199.478C211.999 199.588 211.953 199.693 211.872 199.771C211.791 199.849 211.681 199.893 211.567 199.893V199.893Z" fill="#CACACA"/>
<path d="M23.9789 103.317H91.9587C93.2708 103.316 94.5287 102.816 95.4565 101.926C96.3843 101.037 96.9062 99.8321 96.9077 98.5749V38.0391C96.9062 36.7818 96.3843 35.5765 95.4565 34.6874C94.5287 33.7984 93.2708 33.2983 91.9587 33.2969H23.9789C22.6669 33.2983 21.409 33.7984 20.4812 34.6874C19.5534 35.5765 19.0315 36.7818 19.03 38.0391V98.5748C19.0315 99.8321 19.5534 101.037 20.4812 101.926C21.409 102.816 22.6669 103.316 23.9789 103.317V103.317Z" fill="#E6E6E6"/>
<path d="M38.2868 100.118H88.6199C89.932 100.117 91.1899 99.6168 92.1177 98.7278C93.0454 97.8388 93.5673 96.6334 93.5688 95.3762V41.2403C93.5673 39.983 93.0454 38.7777 92.1177 37.8887C91.1899 36.9997 89.932 36.4996 88.6199 36.4981H27.3172C26.0051 36.4996 24.7472 36.9997 23.8194 37.8887C22.8917 38.7777 22.3698 39.983 22.3682 41.2403V84.8648C22.373 88.9089 24.0516 92.7861 27.0359 95.6457C30.0202 98.5053 34.0664 100.114 38.2868 100.118Z" fill="white"/>
<path d="M65.0366 54.5611C65.0363 55.9399 65.4626 57.2877 66.2617 58.4343C67.0607 59.5808 68.1967 60.4746 69.5259 61.0025C70.855 61.5305 72.3178 61.6689 73.729 61.4002C75.1403 61.1316 76.4367 60.468 77.4544 59.4933C78.472 58.5187 79.1652 57.2767 79.4463 55.9245C79.7273 54.5724 79.5836 53.1707 79.0334 51.8968C78.4831 50.6229 77.5509 49.534 76.3548 48.7677C75.1586 48.0014 73.7522 47.5922 72.3134 47.5919C71.3577 47.5907 70.4112 47.7701 69.528 48.1198C68.6448 48.4696 67.8423 48.9828 67.1664 49.6302C66.4905 50.2775 65.9545 51.0463 65.589 51.8924C65.2236 52.7385 65.0358 53.6454 65.0366 54.5611V54.5611Z" fill="#00751B"/>
<path d="M60.0402 67.1368H77.716C78.7342 67.1368 79.5596 67.9277 79.5596 68.9034V69.7477C79.5596 70.7233 78.7342 71.5142 77.716 71.5142H60.0402C59.022 71.5142 58.1966 70.7233 58.1966 69.7477V68.9034C58.1966 67.9277 59.022 67.1368 60.0402 67.1368Z" fill="#3F3D56"/>
<path d="M38.2811 75.8916H77.656C78.6741 75.8916 79.4995 76.6825 79.4995 77.6581V78.5024C79.4995 79.478 78.6741 80.2689 77.656 80.2689H38.2811C37.2629 80.2689 36.4376 79.478 36.4376 78.5024V77.6581C36.4376 76.6825 37.2629 75.8916 38.2811 75.8916Z" fill="#3F3D56"/>
<path d="M38.2811 84.6463H77.656C78.6741 84.6463 79.4995 85.4372 79.4995 86.4128V87.2571C79.4995 88.2328 78.6741 89.0237 77.656 89.0237H38.2811C37.2629 89.0237 36.4376 88.2328 36.4376 87.2571V86.4128C36.4376 85.4372 37.2629 84.6463 38.2811 84.6463Z" fill="#3F3D56"/>
<path d="M72.1507 55.5714C70.7448 55.5714 69.6051 54.4793 69.6051 53.1322C69.6051 51.785 70.7448 50.6929 72.1507 50.6929C73.5566 50.6929 74.6963 51.785 74.6963 53.1322C74.6963 54.4793 73.5566 55.5714 72.1507 55.5714Z" fill="white"/>
<path d="M69.4223 56.4428H74.8771C75.2146 56.4432 75.5381 56.5718 75.7767 56.8004C76.0153 57.0291 76.1495 57.3391 76.1499 57.6624C76.0722 58.707 75.9019 59.7434 75.6408 60.7603C74.5468 61.3004 73.3276 61.5656 72.0975 61.5308C70.8674 61.4961 69.6666 61.1626 68.6077 60.5616C68.3742 59.6085 68.221 58.639 68.1495 57.6624C68.1499 57.3391 68.2841 57.0291 68.5227 56.8004C68.7613 56.5718 69.0849 56.4432 69.4223 56.4428V56.4428Z" fill="white"/>
<path d="M30.5692 48.2792C31.5199 48.2792 32.4492 48.0091 33.2397 47.503C34.0302 46.9969 34.6463 46.2775 35.0101 45.4359C35.3739 44.5942 35.4691 43.6681 35.2836 42.7747C35.0981 41.8812 34.6403 41.0605 33.9681 40.4163C33.2958 39.7722 32.4394 39.3335 31.5069 39.1558C30.5745 38.978 29.608 39.0693 28.7297 39.4179C27.8514 39.7665 27.1007 40.3569 26.5725 41.1143C26.0443 41.8718 25.7624 42.7623 25.7624 43.6733C25.7624 44.8948 26.2688 46.0664 27.1703 46.9302C28.0717 47.794 29.2943 48.2792 30.5692 48.2792V48.2792Z" fill="#E6E6E6"/>
<path d="M28.893 44.6371L29.8989 43.6733L28.893 42.7095C28.8041 42.6242 28.7541 42.5087 28.7541 42.3882C28.7541 42.2677 28.8041 42.1521 28.893 42.0669C28.9819 41.9817 29.1025 41.9338 29.2283 41.9338C29.3541 41.9338 29.4747 41.9817 29.5636 42.0669L30.5694 43.0307L31.5753 42.0669C31.6642 41.9817 31.7848 41.9338 31.9106 41.9338C32.0364 41.9338 32.157 41.9817 32.2459 42.0669C32.3348 42.1521 32.3848 42.2677 32.3848 42.3882C32.3848 42.5087 32.3348 42.6242 32.2459 42.7095L31.24 43.6733L32.2459 44.6371C32.3348 44.7223 32.3848 44.8379 32.3848 44.9584C32.3848 45.0789 32.3348 45.1945 32.2459 45.2797C32.157 45.3649 32.0364 45.4128 31.9106 45.4128C31.7848 45.4128 31.6642 45.3649 31.5753 45.2797L30.5694 44.3158L29.5636 45.2797C29.5196 45.3218 29.4673 45.3553 29.4098 45.3782C29.3522 45.401 29.2906 45.4127 29.2283 45.4127C29.1661 45.4127 29.1044 45.401 29.0469 45.3782C28.9893 45.3553 28.9371 45.3218 28.893 45.2797C28.849 45.2375 28.8141 45.1874 28.7902 45.1323C28.7664 45.0771 28.7542 45.018 28.7542 44.9584C28.7542 44.8987 28.7664 44.8396 28.7902 44.7845C28.8141 44.7294 28.849 44.6793 28.893 44.6371V44.6371Z" fill="white"/>
</g>
<defs>
<clipPath id="clip0_22_48">
<rect width="211.333" height="200" fill="white" transform="matrix(-1 0 0 1 212 0)"/>
</clipPath>
</defs>
</svg>