<svg width="479" height="300" viewBox="0 0 479 300" fill="none" xmlns="http://www.w3.org/2000/svg">
<g clip-path="url(#clip0_11_632)">
<path d="M165.682 285.383C165.308 285.4 164.939 285.302 164.623 285.102C164.306 284.902 164.06 284.609 163.915 284.264C163.771 283.919 163.736 283.538 163.816 283.173C163.895 282.807 164.085 282.475 164.36 282.221L164.485 281.724C164.469 281.684 164.452 281.644 164.435 281.605C164.059 280.716 163.428 279.957 162.622 279.426C161.816 278.894 160.871 278.612 159.906 278.616C158.94 278.619 157.997 278.908 157.195 279.446C156.393 279.984 155.768 280.746 155.398 281.638C153.92 285.198 152.038 288.764 151.575 292.528C151.371 294.192 151.457 295.878 151.829 297.513C148.358 289.94 146.555 281.709 146.544 273.379C146.543 271.288 146.659 269.199 146.892 267.122C147.084 265.419 147.35 263.728 147.691 262.049C149.552 252.94 153.547 244.402 159.348 237.136C162.156 235.604 164.426 233.248 165.854 230.386C166.371 229.357 166.737 228.259 166.939 227.125C166.622 227.167 165.745 222.343 165.984 222.047C165.542 221.377 164.752 221.044 164.27 220.391C161.873 217.14 158.57 217.708 156.845 222.125C153.162 223.984 153.126 227.067 155.386 230.033C156.824 231.92 157.022 234.472 158.284 236.492C158.154 236.658 158.019 236.819 157.889 236.985C155.516 240.037 153.448 243.313 151.714 246.768C152.136 242.898 151.632 238.983 150.246 235.345C148.84 231.954 146.206 229.099 143.887 226.168C141.1 222.648 135.386 224.184 134.896 228.647C134.891 228.69 134.886 228.733 134.882 228.776C135.226 228.971 135.563 229.177 135.893 229.395C136.308 229.672 136.629 230.068 136.815 230.531C137.001 230.993 137.043 231.501 136.935 231.988C136.827 232.475 136.575 232.918 136.211 233.259C135.847 233.6 135.389 233.823 134.896 233.899L134.845 233.906C134.968 235.148 135.185 236.379 135.494 237.588C132.518 249.096 138.943 253.288 148.117 253.476C148.319 253.58 148.517 253.684 148.719 253.783C146.977 258.719 145.885 263.861 145.469 269.079C145.233 272.158 145.247 275.251 145.51 278.327L145.495 278.218C144.83 274.797 143.005 271.71 140.328 269.479C136.353 266.213 130.735 265.01 126.446 262.385C125.99 262.093 125.46 261.936 124.919 261.935C124.377 261.934 123.846 262.087 123.389 262.378C122.932 262.668 122.567 263.083 122.338 263.574C122.109 264.065 122.025 264.611 122.096 265.148C122.102 265.187 122.108 265.225 122.114 265.263C122.753 265.523 123.376 265.823 123.978 266.161C124.322 266.356 124.66 266.562 124.99 266.78C125.404 267.057 125.725 267.453 125.911 267.916C126.097 268.378 126.139 268.886 126.031 269.373C125.923 269.86 125.671 270.303 125.307 270.644C124.943 270.985 124.485 271.208 123.992 271.284L123.941 271.291C123.905 271.296 123.874 271.302 123.838 271.307C124.93 273.915 126.463 276.316 128.37 278.405C130.231 288.451 138.223 289.405 146.772 286.479H146.777C147.715 290.555 149.074 294.522 150.833 298.317H165.319C165.371 298.156 165.418 297.99 165.465 297.829C164.124 297.914 162.777 297.833 161.456 297.591C162.531 296.272 163.606 294.942 164.681 293.624C164.704 293.599 164.727 293.573 164.748 293.546C165.293 292.871 165.844 292.201 166.389 291.526L166.389 291.525C166.418 289.456 166.181 287.392 165.683 285.383L165.682 285.383Z" fill="#00751B"/>
<path d="M341.593 151.755H11.107C8.16226 151.751 5.33913 150.58 3.25691 148.498C1.17469 146.415 0.0034019 143.592 0 140.648V11.1069C0.0034019 8.16222 1.17469 5.3391 3.25691 3.25688C5.33913 1.17466 8.16226 0.00337139 11.107 -3.05176e-05H341.593C344.537 0.00337139 347.361 1.17466 349.443 3.25688C351.525 5.3391 352.696 8.16222 352.7 11.1069V140.648C352.696 143.592 351.525 146.416 349.443 148.498C347.361 150.58 344.537 151.751 341.593 151.755Z" fill="#F2F2F2"/>
<path d="M264.516 144.671H63.5664C48.5919 144.654 34.2356 138.698 23.647 128.109C13.0584 117.521 7.10234 103.164 7.08545 88.1899V63.5709C7.10233 48.5963 13.0584 34.24 23.647 23.6513C34.2355 13.0627 48.5919 7.10652 63.5664 7.08954H289.135C304.109 7.10652 318.466 13.0627 329.054 23.6513C339.643 34.24 345.599 48.5963 345.616 63.5709C345.592 85.0724 337.039 105.686 321.835 120.89C306.631 136.094 286.018 144.646 264.516 144.671Z" fill="white"/>
<path d="M212.679 44.1728H79.8491C79.0894 44.1728 78.3608 43.871 77.8236 43.3338C77.2864 42.7966 76.9846 42.068 76.9846 41.3083C76.9846 40.5486 77.2864 39.82 77.8236 39.2828C78.3608 38.7456 79.0894 38.4438 79.8491 38.4438H212.679C213.439 38.4438 214.167 38.7456 214.705 39.2828C215.242 39.82 215.544 40.5486 215.544 41.3083C215.544 42.068 215.242 42.7966 214.705 43.3338C214.167 43.871 213.439 44.1728 212.679 44.1728Z" fill="#E6E6E6"/>
<path d="M279.92 74.735H79.8491C79.0894 74.735 78.3608 74.4332 77.8236 73.896C77.2864 73.3588 76.9846 72.6302 76.9846 71.8705C76.9846 71.1108 77.2864 70.3822 77.8236 69.845C78.3608 69.3078 79.0894 69.006 79.8491 69.006H279.92C280.68 69.006 281.408 69.3078 281.946 69.845C282.483 70.3822 282.785 71.1108 282.785 71.8705C282.785 72.6302 282.483 73.3588 281.946 73.896C281.408 74.4332 280.68 74.735 279.92 74.735Z" fill="#E6E6E6"/>
<path d="M279.92 105.297H79.8491C79.0894 105.297 78.3608 104.995 77.8236 104.458C77.2864 103.921 76.9846 103.192 76.9846 102.433C76.9846 101.673 77.2864 100.944 77.8236 100.407C78.3608 99.87 79.0894 99.5682 79.8491 99.5682H279.92C280.68 99.5682 281.408 99.87 281.946 100.407C282.483 100.944 282.785 101.673 282.785 102.433C282.785 103.192 282.483 103.921 281.946 104.458C281.408 104.995 280.68 105.297 279.92 105.297Z" fill="#E6E6E6"/>
<path d="M279.92 105.297H79.8491C79.0894 105.297 78.3608 104.995 77.8236 104.458C77.2864 103.921 76.9846 103.192 76.9846 102.433C76.9846 101.673 77.2864 100.944 77.8236 100.407C78.3608 99.87 79.0894 99.5682 79.8491 99.5682H279.92C280.68 99.5682 281.408 99.87 281.946 100.407C282.483 100.944 282.785 101.673 282.785 102.433C282.785 103.192 282.483 103.921 281.946 104.458C281.408 104.995 280.68 105.297 279.92 105.297Z" fill="#E6E6E6"/>
<path d="M260.555 52.7278C262.387 42.7452 266.668 34.0051 274.195 26.9108C274.471 26.3886 274.944 25.9974 275.509 25.8231C276.073 25.6489 276.684 25.7057 277.207 25.9812L296.705 36.2823C297.227 36.559 297.618 37.0315 297.792 37.5962C297.967 38.1609 297.91 38.7717 297.634 39.2945L283.994 65.1116C283.718 65.6338 283.245 66.025 282.68 66.1992C282.116 66.3735 281.505 66.3167 280.982 66.0412L261.485 55.74C260.962 55.4634 260.571 54.9909 260.397 54.4262C260.223 53.8615 260.279 53.2507 260.555 52.7278Z" fill="#E6E6E6"/>
<path d="M266.17 45.7202C266.411 40.5093 270.211 34.8716 274.939 29.1226C275.198 28.6335 275.641 28.2672 276.17 28.104C276.699 27.9408 277.271 27.994 277.76 28.252L294.517 37.105C295.006 37.3641 295.372 37.8066 295.535 38.3355C295.699 38.8643 295.645 39.4364 295.387 39.9261L283.25 62.8997C282.991 63.3888 282.548 63.7551 282.019 63.9183C281.49 64.0815 280.918 64.0283 280.429 63.7703L270.048 58.286C267.87 57.1319 266.238 55.1607 265.511 52.805C264.784 50.4492 265.021 47.9013 266.17 45.7202Z" fill="white"/>
<path d="M285.847 49.0448L272.762 42.178C272.555 42.0682 272.399 41.8808 272.33 41.6567C272.261 41.4326 272.283 41.1903 272.392 40.9826C272.501 40.7749 272.688 40.6188 272.911 40.5486C273.135 40.4784 273.378 40.4997 273.586 40.6078L286.671 47.4746C286.878 47.5844 287.033 47.7719 287.103 47.9959C287.172 48.22 287.15 48.4624 287.041 48.6701C286.932 48.8778 286.745 49.0338 286.521 49.104C286.297 49.1743 286.055 49.153 285.847 49.0448Z" fill="#6C63FF"/>
<path d="M277.9 39.3832L275.021 37.8725C274.918 37.8187 274.826 37.7449 274.751 37.6555C274.676 37.5661 274.619 37.4627 274.584 37.3513C274.549 37.2399 274.537 37.1227 274.547 37.0065C274.558 36.8902 274.591 36.7772 274.645 36.6738C274.699 36.5704 274.774 36.4788 274.863 36.4042C274.953 36.3295 275.057 36.2733 275.168 36.2388C275.28 36.2043 275.397 36.1921 275.513 36.203C275.629 36.214 275.742 36.2477 275.845 36.3023L278.724 37.813C278.931 37.9228 279.087 38.1103 279.156 38.3343C279.225 38.5584 279.203 38.8008 279.094 39.0085C278.985 39.2162 278.798 39.3722 278.574 39.4424C278.351 39.5127 278.108 39.4914 277.9 39.3832Z" fill="#6C63FF"/>
<path d="M282.224 55.9477L269.139 49.0809C268.932 48.9713 268.776 48.7838 268.707 48.5596C268.637 48.3355 268.659 48.0929 268.769 47.8851C268.878 47.6773 269.065 47.5212 269.289 47.451C269.512 47.3808 269.755 47.4023 269.963 47.5108L283.048 54.3775C283.255 54.4873 283.411 54.6748 283.48 54.8988C283.549 55.1229 283.527 55.3653 283.418 55.573C283.309 55.7807 283.122 55.9367 282.898 56.0069C282.675 56.0772 282.432 56.0559 282.224 55.9477Z" fill="#6C63FF"/>
<path d="M284.036 52.4963L270.951 45.6295C270.847 45.5757 270.755 45.5019 270.68 45.4125C270.605 45.323 270.549 45.2196 270.514 45.1083C270.479 44.9969 270.466 44.8797 270.476 44.7635C270.487 44.6472 270.52 44.5341 270.574 44.4308C270.629 44.3274 270.703 44.2358 270.793 44.1611C270.882 44.0865 270.986 44.0303 271.097 43.9958C271.209 43.9613 271.326 43.9491 271.442 43.96C271.559 43.9709 271.672 44.0047 271.775 44.0593L284.859 50.9261C285.067 51.0359 285.222 51.2234 285.291 51.4474C285.361 51.6715 285.338 51.9139 285.229 52.1216C285.12 52.3292 284.934 52.4853 284.71 52.5555C284.486 52.6257 284.244 52.6044 284.036 52.4963Z" fill="#6C63FF"/>
<path d="M401.546 227.925H394.778C394.458 227.925 394.141 227.988 393.845 228.111C393.55 228.233 393.281 228.413 393.055 228.639C392.828 228.865 392.649 229.134 392.526 229.43C392.404 229.725 392.341 230.042 392.341 230.362C392.341 231.009 392.084 231.628 391.627 232.086C391.17 232.543 390.55 232.799 389.904 232.799H367.34C367.019 232.799 366.703 232.736 366.407 232.614C366.111 232.491 365.843 232.312 365.616 232.086C365.39 231.859 365.21 231.591 365.088 231.295C364.965 230.999 364.902 230.682 364.902 230.362L364.456 227.892L364.485 227.925L364.456 227.892L360.366 222.677C360.232 222.504 360.06 222.364 359.863 222.268C359.665 222.172 359.449 222.123 359.23 222.125H351.559C351.176 222.126 350.809 222.278 350.538 222.549C350.267 222.819 350.115 223.187 350.115 223.57L349.956 227.892H347.056C346.447 227.892 345.844 228.012 345.282 228.245C344.719 228.478 344.208 228.819 343.777 229.25C343.346 229.681 343.005 230.192 342.771 230.755C342.538 231.317 342.418 231.921 342.418 232.53V262.736C342.418 263.277 342.525 263.812 342.732 264.311C342.939 264.811 343.242 265.264 343.624 265.647C344.006 266.029 344.46 266.332 344.959 266.539C345.459 266.746 345.994 266.852 346.534 266.852H401.546C402.637 266.851 403.683 266.417 404.455 265.645C405.226 264.873 405.66 263.827 405.661 262.736V232.04C405.661 231.499 405.554 230.964 405.348 230.465C405.141 229.966 404.838 229.512 404.456 229.13C404.074 228.748 403.62 228.445 403.121 228.238C402.622 228.032 402.086 227.925 401.546 227.925Z" fill="#F2F2F2"/>
<path d="M364.458 227.78H350.115V223.458C350.115 223.075 350.267 222.708 350.538 222.437C350.809 222.166 351.176 222.014 351.559 222.014H359.229C359.449 222.012 359.665 222.06 359.863 222.156C360.06 222.252 360.232 222.392 360.366 222.566L364.458 227.78Z" fill="#E6E6E6"/>
<path d="M371.803 263.528H347.852C347.094 263.527 346.367 263.226 345.831 262.69C345.295 262.154 344.994 261.427 344.993 260.669V254.119C344.994 253.36 345.295 252.634 345.831 252.097C346.367 251.561 347.094 251.26 347.852 251.259H376.599C377.357 251.26 378.084 251.561 378.62 252.097C379.156 252.634 379.457 253.36 379.458 254.119V255.873C379.456 257.902 378.649 259.848 377.213 261.283C375.778 262.719 373.832 263.526 371.803 263.528Z" fill="white"/>
<path d="M354.747 256.2H348.835C348.451 256.2 348.082 256.047 347.81 255.775C347.538 255.503 347.385 255.134 347.385 254.75C347.385 254.365 347.538 253.996 347.81 253.724C348.082 253.452 348.451 253.3 348.835 253.3H354.747C355.131 253.3 355.5 253.452 355.772 253.724C356.044 253.996 356.197 254.365 356.197 254.75C356.197 255.134 356.044 255.503 355.772 255.775C355.5 256.047 355.131 256.2 354.747 256.2Z" fill="#F2F2F2"/>
<path d="M374.824 260.773H348.835C348.644 260.773 348.456 260.736 348.279 260.663C348.103 260.591 347.943 260.484 347.808 260.349C347.673 260.214 347.566 260.055 347.493 259.878C347.42 259.702 347.382 259.513 347.382 259.323C347.382 259.132 347.42 258.943 347.493 258.767C347.566 258.591 347.673 258.431 347.808 258.296C347.943 258.162 348.103 258.055 348.279 257.982C348.456 257.91 348.644 257.872 348.835 257.873H374.824C375.208 257.873 375.577 258.026 375.849 258.298C376.121 258.569 376.274 258.938 376.274 259.323C376.274 259.707 376.121 260.076 375.849 260.348C375.577 260.62 375.208 260.773 374.824 260.773H374.824Z" fill="#F2F2F2"/>
<path d="M425.59 261.067H418.822C418.502 261.067 418.185 261.13 417.889 261.252C417.593 261.375 417.325 261.554 417.098 261.78C416.872 262.007 416.693 262.275 416.57 262.571C416.448 262.867 416.385 263.184 416.385 263.504C416.385 264.15 416.128 264.77 415.671 265.227C415.214 265.684 414.594 265.941 413.947 265.941H391.383C391.063 265.941 390.746 265.878 390.451 265.755C390.155 265.633 389.886 265.453 389.66 265.227C389.434 265.001 389.254 264.732 389.132 264.436C389.009 264.141 388.946 263.824 388.946 263.504L388.5 261.033L388.529 261.067L388.5 261.033L384.41 255.819C384.276 255.645 384.104 255.505 383.906 255.409C383.709 255.313 383.492 255.265 383.273 255.267H375.603C375.22 255.267 374.853 255.419 374.582 255.69C374.311 255.961 374.159 256.328 374.158 256.711L374 261.033H371.1C370.491 261.033 369.888 261.153 369.325 261.386C368.763 261.619 368.251 261.961 367.821 262.392C367.39 262.822 367.048 263.334 366.815 263.896C366.582 264.459 366.462 265.062 366.462 265.671V295.878C366.462 296.418 366.569 296.953 366.775 297.453C366.982 297.952 367.285 298.406 367.668 298.788C368.05 299.17 368.504 299.473 369.003 299.68C369.502 299.887 370.037 299.994 370.578 299.994H425.59C426.681 299.992 427.727 299.558 428.498 298.787C429.27 298.015 429.703 296.969 429.705 295.878V265.181C429.705 264.641 429.598 264.106 429.391 263.607C429.185 263.107 428.881 262.654 428.499 262.272C428.117 261.89 427.664 261.587 427.164 261.38C426.665 261.173 426.13 261.067 425.59 261.067Z" fill="#F2F2F2"/>
<path d="M388.502 260.922H374.158V256.6C374.159 256.217 374.311 255.849 374.582 255.579C374.853 255.308 375.22 255.156 375.603 255.155H383.273C383.493 255.153 383.709 255.202 383.907 255.298C384.104 255.394 384.276 255.534 384.41 255.707L388.502 260.922Z" fill="#E6E6E6"/>
<path d="M395.847 296.67H371.896C371.138 296.669 370.411 296.367 369.875 295.831C369.339 295.295 369.037 294.568 369.037 293.81V287.26C369.037 286.502 369.339 285.775 369.875 285.239C370.411 284.703 371.138 284.401 371.896 284.4H400.642C401.401 284.401 402.127 284.703 402.664 285.239C403.2 285.775 403.501 286.502 403.502 287.26V289.014C403.5 291.044 402.692 292.99 401.257 294.425C399.822 295.86 397.876 296.667 395.847 296.67Z" fill="white"/>
<path d="M378.79 289.341H372.879C372.494 289.341 372.126 289.188 371.854 288.917C371.582 288.645 371.429 288.276 371.429 287.891C371.429 287.507 371.582 287.138 371.854 286.866C372.126 286.594 372.494 286.441 372.879 286.441H378.79C379.175 286.441 379.544 286.594 379.816 286.866C380.088 287.138 380.24 287.507 380.24 287.891C380.24 288.276 380.088 288.645 379.816 288.917C379.544 289.188 379.175 289.341 378.79 289.341Z" fill="#F2F2F2"/>
<path d="M398.867 293.914H372.879C372.688 293.915 372.499 293.878 372.323 293.805C372.147 293.732 371.987 293.625 371.852 293.491C371.717 293.356 371.61 293.196 371.536 293.02C371.463 292.844 371.426 292.655 371.426 292.464C371.426 292.274 371.463 292.085 371.536 291.909C371.61 291.733 371.717 291.573 371.852 291.438C371.987 291.303 372.147 291.197 372.323 291.124C372.499 291.051 372.688 291.014 372.879 291.014H398.867C399.252 291.014 399.621 291.167 399.893 291.439C400.165 291.711 400.317 292.08 400.317 292.464C400.317 292.849 400.165 293.218 399.893 293.49C399.621 293.762 399.252 293.914 398.867 293.914H398.867Z" fill="#F2F2F2"/>
<path d="M318.073 288.62L312.484 288.619L309.826 267.063H318.074L318.073 288.62Z" fill="#FFB6B6"/>
<path d="M301.205 296.865C301.208 297.491 301.457 298.091 301.899 298.534C302.342 298.977 302.941 299.228 303.567 299.232H314.087L314.413 298.556L315.901 295.486L316.478 298.556L316.605 299.232H320.573L320.517 298.552L319.458 285.863L318.074 285.778L312.094 285.424L310.624 285.334V289.122C309.51 290.308 300.761 294.791 301.205 296.865Z" fill="#2F2E41"/>
<path d="M410.602 245.456L407.9 250.349L387.744 242.259L391.731 235.038L410.602 245.456Z" fill="#FFB6B6"/>
<path d="M409.669 264.209C410.218 264.509 410.864 264.58 411.465 264.407C412.067 264.234 412.576 263.831 412.882 263.285L417.966 254.074L417.532 253.463L415.563 250.676L418.53 251.655L419.183 251.87L421.101 248.396L420.478 248.117L408.858 242.911L408.114 244.082L404.914 249.147L404.125 250.389L407.442 252.22C407.942 253.769 407.638 263.595 409.669 264.209Z" fill="#2F2E41"/>
<path d="M327.424 146.547L348.54 155.513C348.54 155.513 355.296 169.936 350.624 172.003V210.133L398.856 238.047L384.318 262.331C384.318 262.331 365.657 257.511 365.852 253.11C366.047 248.71 368.198 246.969 361.791 246.404C355.384 245.839 351.755 246.311 351.929 242.384C352.103 238.457 329.301 218.039 329.301 218.039L327.424 146.547Z" fill="#2F2E41"/>
<path d="M332.482 153.868L327.128 147.852C327.128 147.852 315.103 167.598 315.148 171.654C315.193 175.71 304.94 196.626 304.94 196.626L292.227 271.266C292.227 271.266 316.749 277.095 318.637 277.256C320.525 277.417 323.709 278.412 321.707 274.634C319.704 270.856 321.707 270.856 321.707 270.856L322.937 213.389L332.482 173.863V153.868Z" fill="#2F2E41"/>
<path d="M329.675 96.0472L339.928 93.5865L345.856 100.859C348.562 103.404 350.58 106.594 351.721 110.129C352.862 113.665 353.09 117.432 352.383 121.079L346.899 149.362C346.899 149.362 356.742 158.384 355.512 163.305C353.516 171.287 331.509 164.239 327.721 164.797C323.933 165.356 319.012 159.227 318.192 155.73C317.371 152.232 320.717 143.838 321.883 144.03C323.048 144.222 318.666 126.667 318.666 126.667C318.666 126.667 319.012 114.912 323.113 111.631C325.628 109.583 327.675 107.02 329.116 104.114L329.675 96.0472Z" fill="#00751B"/>
<path d="M285.161 51.7049C285.169 52.3944 285.327 53.0739 285.623 53.6965C285.92 54.319 286.348 54.8698 286.878 55.3107C287.408 55.7516 288.028 56.072 288.694 56.2499C289.36 56.4277 290.057 56.4588 290.736 56.3408L303.642 76.2532L310.027 74.0376L294.526 50.4995C294.242 49.3707 293.555 48.3852 292.593 47.7297C291.631 47.0741 290.463 46.7941 289.308 46.9427C288.154 47.0913 287.094 47.6582 286.33 48.5359C285.566 49.4136 285.15 50.5411 285.161 51.7049H285.161Z" fill="#FFB6B6"/>
<path d="M336.915 121.122C336.915 121.122 341.775 110.716 338.078 106.09C334.382 101.465 331.68 96.7634 329.611 95.4898C327.543 94.2162 319.298 79.4689 317.22 79.0285C315.142 78.588 316.756 76.1973 313.854 74.9141C310.953 73.631 310.12 73.6215 310.129 72.7883C310.139 71.9552 303.054 61.9512 303.054 61.9512L295.771 66.4719L313.562 102.866L336.915 121.122Z" fill="#00751B"/>
<path d="M291 218.504C281.683 206.112 276.298 192.254 276.121 176.454C275.821 175.603 275.871 174.667 276.26 173.852C276.649 173.038 277.345 172.41 278.196 172.108L309.952 160.872C310.804 160.572 311.74 160.622 312.554 161.01C313.369 161.399 313.996 162.095 314.298 162.946L329.177 204.996C329.477 205.847 329.427 206.783 329.038 207.598C328.649 208.413 327.953 209.04 327.102 209.342L295.346 220.578C294.494 220.879 293.558 220.829 292.744 220.44C291.929 220.051 291.302 219.355 291 218.504Z" fill="#E6E6E6"/>
<path d="M288.942 204.941C283.338 199.276 280.939 189.171 279.376 177.908C279.095 177.111 279.142 176.234 279.506 175.471C279.87 174.708 280.522 174.121 281.319 173.838L308.612 164.181C309.409 163.9 310.285 163.947 311.048 164.311C311.811 164.675 312.399 165.327 312.682 166.124L325.922 203.542C326.203 204.34 326.156 205.216 325.792 205.979C325.428 206.742 324.776 207.33 323.979 207.612L307.072 213.595C303.52 214.847 299.616 214.639 296.217 213.017C292.818 211.395 290.202 208.49 288.942 204.941Z" fill="white"/>
<path d="M313.047 186.281L291.787 193.87C291.449 193.991 291.077 193.972 290.752 193.818C290.427 193.664 290.177 193.388 290.056 193.05C289.936 192.711 289.954 192.339 290.108 192.014C290.262 191.69 290.538 191.44 290.877 191.319L312.137 183.73C312.304 183.67 312.482 183.644 312.66 183.653C312.837 183.662 313.011 183.705 313.172 183.782C313.333 183.858 313.477 183.965 313.596 184.097C313.716 184.229 313.808 184.383 313.868 184.55C313.927 184.718 313.954 184.895 313.945 185.073C313.936 185.251 313.892 185.425 313.816 185.586C313.74 185.746 313.633 185.891 313.501 186.01C313.369 186.129 313.215 186.221 313.047 186.281Z" fill="#6C63FF"/>
<path d="M293.967 185.205L289.29 186.874C288.952 186.994 288.58 186.975 288.256 186.821C287.932 186.667 287.683 186.391 287.562 186.053C287.441 185.715 287.46 185.343 287.613 185.019C287.766 184.695 288.042 184.445 288.38 184.323L293.057 182.654C293.395 182.534 293.767 182.553 294.091 182.707C294.415 182.861 294.664 183.137 294.785 183.475C294.906 183.813 294.887 184.185 294.734 184.509C294.581 184.833 294.305 185.084 293.967 185.205Z" fill="#6C63FF"/>
<path d="M317.051 197.497L295.791 205.086C295.623 205.146 295.446 205.172 295.268 205.163C295.09 205.154 294.916 205.11 294.755 205.034C294.595 204.958 294.45 204.851 294.331 204.719C294.212 204.587 294.12 204.433 294.06 204.265C294 204.098 293.974 203.92 293.983 203.743C293.992 203.565 294.035 203.391 294.111 203.23C294.188 203.069 294.295 202.925 294.427 202.806C294.558 202.687 294.713 202.594 294.88 202.535L316.14 194.946C316.308 194.886 316.485 194.86 316.663 194.869C316.841 194.877 317.015 194.921 317.175 194.997C317.336 195.074 317.48 195.181 317.6 195.313C317.719 195.444 317.811 195.599 317.871 195.766C317.931 195.934 317.957 196.111 317.948 196.289C317.939 196.467 317.896 196.641 317.819 196.801C317.743 196.962 317.636 197.106 317.504 197.226C317.372 197.345 317.218 197.437 317.051 197.497Z" fill="#6C63FF"/>
<path d="M315.049 191.889L293.789 199.478C293.621 199.538 293.444 199.564 293.266 199.555C293.089 199.546 292.914 199.502 292.754 199.426C292.593 199.35 292.449 199.243 292.329 199.111C292.21 198.979 292.118 198.825 292.058 198.658C291.998 198.49 291.972 198.312 291.981 198.135C291.99 197.957 292.034 197.783 292.11 197.622C292.186 197.461 292.293 197.317 292.425 197.198C292.557 197.079 292.711 196.986 292.878 196.927L314.138 189.338C314.477 189.217 314.849 189.236 315.174 189.39C315.498 189.543 315.749 189.82 315.869 190.158C315.99 190.496 315.971 190.869 315.818 191.193C315.664 191.518 315.387 191.768 315.049 191.889Z" fill="#6C63FF"/>
<path d="M330.918 92.3389C336.997 92.3389 341.926 87.4106 341.926 81.3312C341.926 75.2518 336.997 70.3235 330.918 70.3235C324.838 70.3235 319.91 75.2518 319.91 81.3312C319.91 87.4106 324.838 92.3389 330.918 92.3389Z" fill="#FFB6B6"/>
<path d="M319.343 79.8947C319.928 80.2843 320.624 80.4703 321.325 80.4241C321.487 79.5815 321.513 78.7186 321.402 77.8678C321.819 78.6313 322.133 79.4468 322.336 80.293C324.293 79.8657 324.206 79.2834 326.223 79.5881C326.777 79.7049 327.302 79.9345 327.763 80.2625C328.225 80.5906 328.614 81.0101 328.906 81.495C329.198 81.9799 329.388 82.5198 329.463 83.0811C329.537 83.6424 329.496 84.213 329.341 84.7576C329.768 83.822 331.543 84.2473 331.842 85.3179C332.155 86.4446 331.468 87.5833 330.81 88.5503C328.461 92.0069 334.536 98.3781 332.187 101.835L331.86 102.225C333.914 101.157 335.857 99.8874 337.661 98.4363C337.352 97.0709 337.299 95.6601 337.503 94.2753C337.758 95.4161 338.383 96.4408 339.28 97.1902C345.926 91.9786 353.921 84.4757 352.451 82.6549L347.977 74.7686C343.275 66.4843 331.935 63.1564 324.91 69.5891C324.726 69.7606 324.31 69.6469 324.125 69.8275C322.106 70.3505 319.522 71.2981 318.204 72.9116C316.89 74.5277 317.618 78.7299 319.343 79.8947Z" fill="#2F2E41"/>
<path d="M327.955 165.139C318.999 160.364 311.971 153.632 307.496 144.307C307.082 143.885 306.853 143.316 306.858 142.725C306.863 142.134 307.103 141.569 307.524 141.155L323.257 125.704C323.679 125.29 324.248 125.061 324.839 125.066C325.43 125.071 325.995 125.311 326.409 125.732L346.869 146.564C347.282 146.986 347.512 147.555 347.506 148.146C347.501 148.737 347.261 149.302 346.84 149.717L331.107 165.168C330.685 165.581 330.116 165.811 329.525 165.805C328.934 165.8 328.369 165.561 327.955 165.139Z" fill="#E6E6E6"/>
<path d="M322.982 157.662C318.09 155.851 313.872 150.519 309.829 144.269C309.442 143.874 309.227 143.341 309.232 142.787C309.237 142.234 309.461 141.705 309.856 141.317L323.377 128.038C323.772 127.65 324.305 127.436 324.859 127.441C325.412 127.446 325.941 127.67 326.329 128.064L344.535 146.602C344.923 146.998 345.137 147.53 345.132 148.084C345.127 148.637 344.903 149.166 344.509 149.555L336.132 157.781C334.372 159.506 331.998 160.463 329.533 160.44C327.068 160.418 324.712 159.419 322.982 157.662Z" fill="white"/>
<path d="M332.122 139.923L321.608 150.306C321.525 150.388 321.427 150.453 321.319 150.497C321.211 150.541 321.096 150.563 320.979 150.562C320.863 150.562 320.748 150.538 320.64 150.493C320.533 150.447 320.436 150.382 320.354 150.299C320.272 150.216 320.207 150.118 320.163 150.01C320.119 149.902 320.097 149.786 320.098 149.67C320.099 149.553 320.122 149.438 320.168 149.331C320.213 149.224 320.279 149.126 320.362 149.044L330.876 138.661C330.959 138.579 331.057 138.514 331.165 138.47C331.273 138.427 331.388 138.404 331.505 138.405C331.621 138.406 331.736 138.429 331.844 138.475C331.951 138.52 332.048 138.586 332.13 138.669C332.212 138.751 332.277 138.85 332.321 138.958C332.365 139.065 332.387 139.181 332.386 139.297C332.385 139.414 332.362 139.529 332.316 139.636C332.271 139.744 332.205 139.841 332.122 139.923Z" fill="#6C63FF"/>
<path d="M320.504 144.562L318.191 146.846C318.024 147.012 317.798 147.104 317.563 147.102C317.328 147.101 317.103 147.006 316.937 146.839C316.772 146.671 316.68 146.445 316.682 146.21C316.683 145.975 316.778 145.75 316.945 145.585L319.258 143.3C319.341 143.218 319.439 143.153 319.547 143.109C319.655 143.065 319.771 143.043 319.887 143.043C320.004 143.044 320.119 143.067 320.227 143.113C320.334 143.158 320.432 143.224 320.514 143.307C320.596 143.39 320.66 143.488 320.704 143.596C320.748 143.704 320.77 143.82 320.769 143.936C320.769 144.053 320.745 144.168 320.699 144.276C320.654 144.383 320.588 144.48 320.504 144.562Z" fill="#6C63FF"/>
<path d="M337.6 145.47L327.086 155.853C327.003 155.935 326.905 156 326.797 156.044C326.689 156.087 326.573 156.11 326.457 156.109C326.341 156.108 326.225 156.085 326.118 156.039C326.011 155.994 325.913 155.928 325.831 155.845C325.75 155.763 325.685 155.664 325.641 155.556C325.597 155.449 325.575 155.333 325.576 155.217C325.576 155.1 325.6 154.985 325.645 154.878C325.691 154.77 325.757 154.673 325.84 154.591L336.354 144.208C336.437 144.126 336.535 144.061 336.643 144.017C336.751 143.973 336.866 143.951 336.982 143.952C337.099 143.952 337.214 143.976 337.321 144.021C337.429 144.067 337.526 144.133 337.608 144.215C337.69 144.298 337.755 144.396 337.798 144.504C337.842 144.612 337.865 144.728 337.864 144.844C337.863 144.961 337.839 145.076 337.794 145.183C337.749 145.29 337.683 145.388 337.6 145.47Z" fill="#6C63FF"/>
<path d="M334.861 142.696L324.347 153.08C324.264 153.162 324.166 153.227 324.058 153.271C323.95 153.315 323.834 153.337 323.718 153.337C323.601 153.336 323.486 153.313 323.378 153.267C323.271 153.222 323.173 153.156 323.091 153.073C323.009 152.99 322.945 152.892 322.901 152.784C322.857 152.676 322.835 152.56 322.835 152.444C322.836 152.327 322.86 152.212 322.906 152.104C322.951 151.997 323.017 151.9 323.101 151.818L333.615 141.434C333.782 141.269 334.008 141.177 334.243 141.179C334.478 141.18 334.703 141.275 334.868 141.443C335.034 141.61 335.126 141.836 335.124 142.071C335.123 142.306 335.028 142.531 334.861 142.696V142.696Z" fill="#6C63FF"/>
<path d="M312.321 186.715C312.19 186.038 312.209 185.341 312.374 184.672C312.54 184.002 312.848 183.377 313.279 182.839C313.71 182.3 314.253 181.862 314.87 181.554C315.487 181.247 316.164 181.076 316.853 181.056L325.503 158.96L332.203 159.85L321.737 186.018C321.686 187.181 321.209 188.285 320.399 189.12C319.588 189.955 318.499 190.463 317.339 190.549C316.178 190.635 315.026 190.292 314.101 189.586C313.176 188.879 312.543 187.858 312.321 186.715Z" fill="#FFB6B6"/>
<path d="M349.103 108.33C349.103 108.33 355.951 117.551 353.257 122.823C350.563 128.096 348.859 133.244 347.088 134.906C345.317 136.569 340.196 152.67 338.249 153.518C336.301 154.366 338.362 156.385 335.777 158.224C333.192 160.063 332.377 160.239 332.554 161.053C332.73 161.868 327.795 173.089 327.795 173.089L319.754 170.121L336.878 110.558L349.103 108.33Z" fill="#00751B"/>
<path d="M477.555 300L46.8775 299.55C46.6726 299.549 46.4764 299.468 46.3318 299.322C46.1872 299.177 46.106 298.981 46.106 298.776C46.106 298.571 46.1872 298.375 46.3318 298.23C46.4764 298.085 46.6726 298.003 46.8775 298.002L477.555 298.453C477.656 298.452 477.757 298.472 477.851 298.511C477.945 298.55 478.031 298.606 478.103 298.678C478.175 298.75 478.232 298.836 478.271 298.93C478.31 299.024 478.331 299.124 478.331 299.226C478.331 299.328 478.31 299.429 478.271 299.523C478.232 299.617 478.175 299.702 478.103 299.774C478.031 299.846 477.945 299.903 477.851 299.942C477.757 299.981 477.656 300 477.555 300Z" fill="black"/>
<path d="M161.798 129.565C156.698 120.79 154.267 111.366 155.372 101.082C155.242 100.505 155.347 99.9007 155.663 99.4011C155.978 98.9015 156.479 98.5475 157.056 98.4168L178.566 93.5638C179.143 93.4344 179.748 93.539 180.247 93.8547C180.747 94.1704 181.101 94.6713 181.231 95.2476L187.657 123.731C187.787 124.307 187.682 124.912 187.366 125.411C187.051 125.911 186.55 126.265 185.974 126.395L164.463 131.248C163.886 131.378 163.282 131.273 162.782 130.958C162.282 130.642 161.928 130.141 161.798 129.565Z" fill="#E6E6E6"/>
<path d="M161.507 120.589C158.301 116.474 157.522 109.72 157.375 102.278C157.254 101.738 157.352 101.172 157.648 100.704C157.943 100.236 158.413 99.9045 158.952 99.7821L177.439 95.6114C177.979 95.4902 178.545 95.5881 179.013 95.8838C179.481 96.1794 179.813 96.6486 179.935 97.1883L185.653 122.534C185.775 123.074 185.677 123.64 185.381 124.108C185.085 124.576 184.616 124.908 184.076 125.03L172.624 127.614C170.219 128.154 167.697 127.717 165.613 126.4C163.529 125.084 162.052 122.994 161.507 120.589Z" fill="white"/>
<path d="M168.698 106.599C169.074 106.164 169.581 105.863 170.143 105.741C170.705 105.618 171.291 105.681 171.815 105.919C172.338 106.197 172.757 106.637 173.008 107.174C173.26 107.71 173.33 108.313 173.209 108.893C173.007 110.234 172.307 111.454 172.243 112.827C172.186 113.428 172.291 114.034 172.547 114.581C172.803 115.128 173.201 115.596 173.7 115.937C174.463 116.401 175.249 115.253 174.482 114.787C173.219 114.02 173.644 112.335 174.01 111.186C174.467 109.751 174.943 108.287 174.378 106.809C174.127 106.19 173.726 105.643 173.21 105.219C172.693 104.795 172.079 104.508 171.423 104.383C170.767 104.257 170.09 104.299 169.454 104.503C168.819 104.707 168.244 105.067 167.783 105.55C167.181 106.2 168.088 107.256 168.698 106.599Z" fill="#6C63FF"/>
<path d="M174.824 119.946C175.592 119.946 176.215 119.323 176.215 118.555C176.215 117.787 175.592 117.164 174.824 117.164C174.056 117.164 173.433 117.787 173.433 118.555C173.433 119.323 174.056 119.946 174.824 119.946Z" fill="#6C63FF"/>
<path d="M38.8442 68.9857C33.7443 60.2108 31.3135 50.7868 32.4183 40.5029C32.2889 39.9262 32.3935 39.3218 32.7092 38.8222C33.0249 38.3226 33.5258 37.9686 34.1022 37.8379L55.6131 32.9849C56.1897 32.8555 56.7941 32.9601 57.2937 33.2758C57.7933 33.5915 58.1473 34.0924 58.278 34.6688L64.704 63.1516C64.8334 63.7283 64.7288 64.3327 64.4131 64.8323C64.0974 65.3319 63.5965 65.6859 63.0201 65.8166L41.5092 70.6696C40.9326 70.7991 40.3282 70.6944 39.8285 70.3788C39.3289 70.0631 38.9749 69.5621 38.8442 68.9857Z" fill="#E6E6E6"/>
<path d="M38.5535 60.0105C35.3482 55.895 34.569 49.141 34.4223 41.6991C34.3011 41.1591 34.3991 40.593 34.6947 40.1251C34.9903 39.6572 35.4595 39.3257 35.9993 39.2033L54.4861 35.0325C55.0262 34.9113 55.5922 35.0093 56.0602 35.3049C56.5281 35.6005 56.8596 36.0697 56.982 36.6095L62.7002 61.9554C62.8214 62.4954 62.7234 63.0615 62.4278 63.5294C62.1321 63.9973 61.6629 64.3288 61.1232 64.4512L49.671 67.0349C47.2654 67.5748 44.744 67.1384 42.6597 65.8215C40.5755 64.5047 39.0988 62.4148 38.5535 60.0105Z" fill="white"/>
<path d="M48.2159 61.9424C49.2925 61.9424 50.1654 61.0696 50.1654 59.9929C50.1654 58.9162 49.2925 58.0434 48.2159 58.0434C47.1392 58.0434 46.2664 58.9162 46.2664 59.9929C46.2664 61.0696 47.1392 61.9424 48.2159 61.9424Z" fill="#6C63FF"/>
<path d="M50.5456 41.4774C49.7953 40.5976 48.4224 40.7375 47.2865 40.9539C46.1063 41.1254 44.9542 41.4534 43.8607 41.9293C43.3146 42.1702 42.8216 42.517 42.4102 42.9494C41.9988 43.3819 41.6771 43.8915 41.4636 44.4489C41.0098 45.8404 41.5039 47.3524 42.0966 48.6904C43.2376 51.2642 44.7522 53.6555 46.5914 55.7871L47.5207 56.2175C48.9665 54.3757 50.0291 52.2632 50.646 50.0045C51.263 47.7458 51.4217 45.3864 51.113 43.0654C51.0777 42.4931 50.881 41.9425 50.5456 41.4774Z" fill="#6C63FF"/>
</g>
<defs>
<clipPath id="clip0_11_632">
<rect width="478.328" height="300" fill="white"/>
</clipPath>
</defs>
</svg>
