<svg width="400" height="312" viewBox="0 0 400 312" fill="none" xmlns="http://www.w3.org/2000/svg">
<g clip-path="url(#clip0_11_578)">
<path d="M267.267 68.3408C267.209 68.3506 267.121 68.3651 267.014 68.3824C264.933 68.7196 252.348 70.62 239.661 65.8895C234.286 63.8855 236.119 63.3861 224.148 56.4189C210.114 48.2507 206.512 48.3078 205.467 44.4991C203.38 36.8937 214.523 24.938 221.899 25.7251C223.841 25.9324 225.92 27.0655 229.155 26.2972C229.866 26.1284 232.977 25.3894 234.493 22.8691C235.846 20.6208 234.7 18.9989 235.244 17.1549C236.673 12.3148 248.578 9.8993 259.015 11.606C265.018 12.5876 269.688 15.2675 278.781 20.5871C294.609 29.8462 302.522 34.4757 304.301 41.5687C305.987 48.2915 301.941 51.1883 304.883 58.3849C307.623 65.0858 311.975 64.6382 313.473 70.059C315.883 78.782 306.938 88.3556 303.212 92.3436C299.127 96.716 295.22 99.1158 290.034 102.302C283.523 106.3 280.268 108.3 276.355 108.096C269.259 107.727 248.175 108.983 247.9 103.236C247.797 101.082 222.225 102.846 234.817 79.6582C236.361 76.8142 266.617 79.8521 267.016 78.2182" fill="#2F2E41"/>
<path d="M279.513 83.1786L301.261 114.929L238.833 127.285L242.81 87.5351L279.513 83.1786Z" fill="#FFB6B6"/>
<path opacity="0.1" d="M279.513 83.1786L301.261 114.929L238.833 127.285L242.81 87.5351L279.513 83.1786Z" fill="black"/>
<path d="M234.158 106.691L301.489 103.945L331.414 119.963L330.011 222.932L361.339 281.053L203.297 251.764L215.454 207.83L209.843 115.387L234.158 106.691Z" fill="#00751B"/>
<path d="M1.81331 306.728C-0.336295 303.412 -0.590158 299.314 1.13436 295.767L26.7609 243.067C28.6735 239.134 32.7851 236.593 37.2355 236.593H360.919C365.246 236.593 369.182 238.922 371.191 242.672L398.66 293.92C400.558 297.462 400.433 301.623 398.326 305.05C396.218 308.477 392.52 310.532 388.433 310.548L11.6545 312H11.6073C7.61309 312 3.95419 310.032 1.81331 306.728H1.81331Z" fill="white"/>
<path d="M1.81331 306.728C-0.336295 303.412 -0.590158 299.314 1.13436 295.767L26.7609 243.067C28.6735 239.134 32.7851 236.593 37.2355 236.593H360.919C365.246 236.593 369.182 238.922 371.191 242.672L398.66 293.92C400.558 297.462 400.433 301.623 398.326 305.05C396.218 308.477 392.52 310.532 388.433 310.548L11.6545 312H11.6073C7.61309 312 3.95419 310.032 1.81331 306.728H1.81331ZM37.2355 237.784C33.2522 237.784 29.5722 240.059 27.8604 243.579L2.23383 296.279C0.690252 299.454 0.91736 303.121 2.84144 306.09C4.75779 309.047 8.03223 310.808 11.6075 310.808H11.6497L388.428 309.357C392.086 309.343 395.396 307.503 397.282 304.435C399.169 301.368 399.281 297.644 397.582 294.474L370.113 243.225C368.315 239.869 364.792 237.784 360.919 237.784H37.2355H37.2355Z" fill="#3F3D56"/>
<path d="M330.784 291.853L197.208 282.865C195.236 282.732 193.663 281.431 193.201 279.55C192.739 277.669 193.536 275.81 195.231 274.815L224.768 257.468C225.518 257.028 226.379 256.814 227.251 256.855L342.792 261.995C344.32 262.063 345.684 262.879 346.442 264.179C347.2 265.479 347.224 267.044 346.507 268.366L335.003 289.56C334.231 290.982 332.717 291.863 331.088 291.863C330.987 291.863 330.885 291.86 330.784 291.853V291.853Z" fill="#3F3D56"/>
<path d="M261.511 93.8738C283.588 93.8738 301.485 76.3571 301.485 54.7491C301.485 33.1411 283.588 15.6243 261.511 15.6243C239.434 15.6243 221.537 33.1411 221.537 54.7491C221.537 76.3571 239.434 93.8738 261.511 93.8738Z" fill="#FFB6B6"/>
<path d="M274.386 57.2809C274.328 57.2907 274.24 57.3052 274.134 57.3225C272.052 57.6597 259.467 59.5601 246.78 54.8296C241.405 52.8256 243.238 52.3261 231.267 45.359C217.233 37.1908 213.631 37.2479 212.586 33.4392C210.499 25.8338 221.642 13.8781 229.018 14.6652C230.96 14.8725 233.04 16.0056 236.274 15.2373C236.985 15.0685 240.096 14.3295 241.612 11.8092C242.965 9.56085 241.819 7.93897 242.364 6.09502C243.792 1.25488 255.697 -1.16061 266.134 0.546065C272.137 1.52768 276.807 4.20755 285.9 9.52724C301.728 18.7863 309.642 23.4158 311.42 30.5088C313.106 37.2316 309.06 40.1284 312.003 47.325C314.743 54.0259 319.095 53.5783 320.592 58.9991C323.002 67.7221 314.057 77.2956 310.331 81.2837C306.246 85.6561 302.339 88.0559 297.153 91.2417C290.642 95.2404 287.387 97.2398 283.474 97.0364C276.378 96.6676 269.321 90.374 269.046 84.6271C268.943 82.4734 269.861 81.8275 272.133 74.4234C273.079 71.3387 273.736 68.7922 274.135 67.1583" fill="#2F2E41"/>
<path d="M264.905 218.199C269.382 219.024 273.592 220.886 277.183 223.631L277.385 223.673L277.426 223.476L320.678 230.107L317.545 173.8L350.324 156.228L342.576 251.405C340.898 257.484 334.453 261.034 328.274 259.283L273.216 243.783L273.354 243.12L273.161 243.069C268.761 244.231 264.141 244.344 259.687 243.399C248.513 241.186 240.622 233.749 242.063 226.789C243.503 219.83 253.727 215.984 264.905 218.199V218.199Z" fill="#FFB6B6"/>
<path d="M294.475 130.031L331.414 119.963C331.414 119.963 350.819 133.921 353.157 149.023C353.435 150.819 354.206 234.486 353.39 236.662C347.348 252.779 314.114 227.051 314.114 227.051L294.475 130.031Z" fill="#00751B"/>
<path d="M134.252 280.407L130.423 277.195H130.423C129.853 276.716 129.159 276.399 128.418 276.278L43.0929 262.359C41.1454 262.042 39.7068 260.665 39.3383 258.767C38.9701 256.868 39.7929 255.071 41.486 254.077L71.9262 236.201C72.9435 235.603 74.1408 235.415 75.299 235.671L183.484 259.594C185.588 260.059 186.991 261.722 187.06 263.832C187.129 265.941 185.837 267.689 183.768 268.285L138.534 281.306C138.105 281.43 137.667 281.49 137.233 281.49C136.153 281.49 135.097 281.116 134.252 280.407V280.407Z" fill="#3F3D56"/>
<path d="M93.1617 176.596C97.3911 178.254 101.153 180.879 104.134 184.251L104.324 184.332L104.403 184.146L145.525 198.847L189.432 129.266L213.705 143.99L162.796 223.892C159.947 229.537 152.922 231.799 147.206 228.91L96.2555 203.271L96.5215 202.646L96.3427 202.56C91.796 202.866 87.2406 202.101 83.0579 200.33C72.5334 196.042 66.2632 187.251 69.0528 180.696C71.8424 174.14 82.6341 172.305 93.1617 176.596L93.1617 176.596Z" fill="#FFB6B6"/>
<path d="M236.533 141.827L217.112 113.403C217.112 113.403 194.002 117.88 184.482 129.984C183.293 131.497 142.418 189.518 142.154 192.05C140.311 209.775 187.289 218.08 187.289 218.08L236.533 141.827V141.827Z" fill="#00751B"/>
<path d="M132.139 281.261L34.3299 268.03C31.0564 267.587 28.3546 265.292 27.4463 262.182L4.98222 185.228C4.22104 182.62 4.7893 179.919 6.54135 177.818C8.2934 175.716 10.882 174.63 13.6461 174.837L112.189 182.226C115.754 182.493 118.746 184.95 119.636 188.34L141.366 271.135C142.06 273.778 141.366 276.57 139.511 278.606C137.914 280.359 135.648 281.339 133.287 281.339C132.906 281.339 132.522 281.313 132.139 281.261V281.261Z" fill="#3F3D56"/>
<path d="M110.337 123.639C110.909 124.255 112.984 123.628 117.11 122.348C120.246 121.376 120.729 121.022 121.028 120.768C122.076 119.876 122.351 118.939 123.39 114.795C125.255 107.358 125.313 106.62 126.27 105.042C126.6 104.498 127.433 103.202 127.23 103.041C127.021 102.876 126.12 104.227 124.454 104.737C122.83 105.234 122.099 104.437 120.713 104.64C118.921 104.903 117.856 106.568 116.185 109.265C114.705 111.653 114.519 112.613 112.444 117.358C111.856 118.702 111.383 119.742 111.02 120.564C106.946 124.285 102.906 128.055 98.9027 131.858C98.9798 131.743 99.0524 131.634 99.1155 131.539C100.889 128.874 101.13 127.446 101.104 126.375C101.062 124.641 100.216 123.32 98.5252 120.749C96.8682 118.229 95.2982 116.566 93.4067 114.582C90.9271 111.982 89.6874 110.681 89.1937 110.767C85.6673 111.378 84.7243 134.879 89.1611 139.082C88.5384 139.517 88.0227 139.974 87.6497 140.422C83.8517 136.295 77.3454 131.684 70.1379 131.116C65.6945 130.766 63.2421 132.131 62.4796 132.599C58.9551 134.766 56.8595 139.103 57.912 140.326C58.8934 141.467 61.7278 138.873 67.2831 139.016C71.1593 139.116 74.1872 140.492 75.9848 141.309C79.7557 143.023 81.1349 144.709 83.9151 145.863C82.6118 146.914 81.5792 148.226 80.9308 149.45C80.7061 149.676 80.4824 149.904 80.258 150.131C77.3892 148.549 74.1588 147.388 70.7726 147.121C66.3291 146.771 63.8767 148.136 63.1141 148.605C60.7388 150.065 59.0175 152.508 58.4665 154.323C58.1065 154.394 57.7733 154.474 57.4683 154.562C56.3914 152.18 53.187 149.668 50.2074 148.402C45.0786 146.223 38.4162 146.801 37.7033 148.873C37.6806 148.939 37.6749 149.004 37.6649 149.069C38.2271 144.629 38.9904 140.221 39.9442 135.844C39.9765 135.969 40.0171 136.095 40.0713 136.228C41.3373 139.341 44.7586 142.328 49.422 143.878C53.0822 145.094 54.6153 144.464 55.0047 144.288C55.3767 144.119 56.9836 143.444 57.3773 142.102C58.1072 139.613 53.6372 132.259 50.8177 134.726C41.7587 142.652 40.5155 136.234 40.0995 135.153C40.8697 131.693 41.7562 128.253 42.7505 124.832C42.7676 124.853 42.7824 124.873 42.8002 124.894C44.7795 127.244 48.5884 128.899 53.0644 128.972C56.5774 129.029 57.7252 128.067 58.0123 127.809C58.2864 127.562 59.4855 126.541 59.4452 125.272C59.3705 122.92 55.0951 121.004 51.6743 120.672C48.522 120.366 45.1276 121.31 43.4439 122.506C44.2267 119.945 45.0689 117.394 45.9671 114.855C48.2677 115.774 51.5265 115.651 54.7279 114.25C57.3679 113.095 57.8813 111.986 58.0033 111.695C58.1199 111.418 58.6506 110.248 58.169 109.315C57.276 107.587 53.4061 107.616 50.737 108.535C49.6377 108.913 48.5929 109.495 47.6975 110.153C49.2894 105.991 51.0247 101.858 52.8909 97.7557L51.0206 97.2981C48.6365 102.538 46.558 107.847 44.7717 113.215C44.5496 111.641 43.9929 109.964 43.2601 108.601C41.105 104.595 36.5021 101.589 34.9455 102.565C34.634 102.76 34.503 103.077 34.3845 103.456C33.4303 106.499 34.1489 110.705 36.6619 114.569C38.6342 117.602 40.1532 118.028 40.5489 118.124C40.883 118.205 42.1728 118.554 43.233 118.105C42.52 120.496 41.8608 122.898 41.2596 125.31C40.5362 123.552 39.1106 121.679 37.603 120.384C34.1264 117.397 28.7295 116.202 27.6322 117.658C27.4128 117.949 27.4065 118.292 27.4341 118.686C27.6553 121.862 29.8635 125.538 33.6224 128.267C36.5727 130.409 38.1468 130.275 38.5515 130.226C38.7898 130.197 39.5096 130.127 40.2037 129.82C39.5594 132.751 38.9963 135.696 38.5095 138.654C37.536 135.345 34.229 131.218 31.108 132.531C25.5698 134.861 19.0596 131.282 18.3431 132.847C18.1567 133.254 18.311 133.674 18.4894 134.13C19.9243 137.797 23.887 141.349 29.3282 143.236C33.5988 144.717 35.4055 144.001 35.8646 143.801C36.169 143.668 37.1732 143.257 37.9213 142.495C37.3835 146.295 36.9713 150.115 36.681 153.952C35.5263 151.484 32.2739 148.884 29.2292 147.544C23.8883 145.193 16.9029 145.708 16.1271 147.868C15.972 148.301 16.0943 148.717 16.2773 149.185C17.7502 152.949 21.8174 156.595 27.4023 158.532C31.7856 160.052 33.64 159.317 34.1113 159.111C34.4556 158.961 35.6717 158.464 36.4472 157.519C36.3479 159.293 36.2711 161.069 36.2226 162.849C36.2088 163.356 36.2007 163.863 36.1907 164.37C36.1278 164.47 36.0729 164.572 36.0363 164.678C35.8867 165.113 35.9885 165.531 36.1642 165.988C36.1603 166.31 36.1582 166.632 36.1561 166.954C35.1789 166.087 34.0133 164.784 32.6112 162.926C31.3462 161.25 30.1448 162.48 29.3731 163.907C28.1633 163.643 27.0093 163.807 26.1018 164.636C20.0158 170.201 13.1898 167.249 13.0932 168.908C13.0654 169.386 13.3274 169.767 13.6576 170.18C16.3149 173.502 21.5316 175.926 27.729 176.182C32.5931 176.382 34.2176 175.088 34.6245 174.741C34.7674 174.618 35.0877 174.354 35.4346 173.983C35.7132 174.201 35.9843 174.398 36.2562 174.579C36.3632 177.764 36.5546 180.945 36.8384 184.121C36.6077 184.141 36.387 184.179 36.2226 184.195C33.8666 184.43 33.0728 181.319 29.5136 180.182C28.3317 179.805 26.0546 179.393 24.8546 180.182C24.6818 180.296 24.0922 180.723 23.1773 181.094C22.6366 181.313 22.2235 181.415 22.0592 181.459C20.5989 181.85 19.2464 182.923 18.332 183.648C16.6131 185.011 15.7537 185.693 15.3502 186.931C15.2232 187.321 14.8661 188.417 15.3502 189.485C15.579 189.989 16.1099 190.739 18.1456 191.491C19.3555 191.938 22.8845 193.24 27.0909 191.856C28.0488 191.541 27.3176 191.653 31.0045 189.849C33.9052 188.43 35.6016 187.752 35.8499 186.384C35.9373 185.903 35.8492 185.317 36.2226 185.107C36.4302 184.991 36.6811 185.047 36.9315 185.135C37.1756 187.688 37.4804 190.237 37.8498 192.781H34.5306C30.1233 192.781 26.1695 195.182 24.2124 199.047L11.797 223.562C11.0133 225.109 10.5989 226.84 10.5989 228.568V291.605C10.5989 297.82 15.7651 302.876 22.1154 302.876H51.0945C57.4447 302.876 62.611 297.82 62.611 291.605V233.56C62.611 232.145 62.3431 230.759 61.8148 229.442L49.9824 199.935C48.5473 196.356 45.4391 193.825 41.7235 193.041C42.9153 191.658 44.1089 190.277 45.3119 188.9C46.8265 189.615 48.4927 190.202 50.2841 190.614C55.0234 191.705 56.8671 190.733 57.3336 190.465C57.779 190.21 59.7098 189.173 60.0371 187.444C60.0721 187.259 60.0857 187.071 60.0832 186.882C64.9378 190.745 67.4701 192.648 69.3203 192.014C70.9109 191.468 71.819 189.68 72.339 188.075C72.8821 188.148 73.458 188.224 74.0718 188.304C80.7205 189.173 84.071 189.576 85.3526 188.035C87.1263 185.902 85.4428 181.788 84.9787 180.655C83.9702 178.191 82.4187 176.692 81.4549 175.78C80.2034 174.595 76.6364 171.22 71.0208 170.77C69.8 170.672 68.7033 170.747 67.5861 170.976C67.1968 170.627 66.7859 170.286 66.3335 169.961C65.4716 169.343 64.6203 168.885 63.7041 168.528C65.1096 167.021 66.5189 165.518 67.9349 164.022C68.1591 164.122 68.3719 164.218 68.5674 164.307C73.2063 166.416 74.2254 168.481 78.6865 169.568C80.7105 170.061 83.0018 170.619 83.5689 169.78C84.5767 168.289 80.2993 162.153 73.6895 158.001C74.1351 157.539 74.5819 157.079 75.0286 156.619C75.6331 156.867 76.1656 157.108 76.6194 157.315C81.2582 159.423 82.2774 161.488 86.7385 162.575C88.7623 163.069 91.0536 163.627 91.6209 162.787C92.52 161.457 89.2116 156.427 83.7933 152.41C85.2817 151.947 87.2552 151.434 89.8108 151.5C93.687 151.6 96.7149 152.976 98.5125 153.793C103.151 155.902 104.17 157.967 108.632 159.054C110.655 159.547 112.947 160.105 113.514 159.266C115.012 157.049 104.837 144.559 92.6656 143.6C91.7208 143.525 90.8715 143.532 90.1038 143.587C89.9978 143.415 89.8826 143.239 89.7612 143.059C93.8794 143.189 101.922 142.036 108.767 146.74C110.741 148.096 114.576 151.287 120.993 153.908C123.044 154.746 124.075 155.158 124.359 154.814C125.376 153.583 116.922 143.447 105.027 138.454C100.311 136.475 97.3972 136.287 95.3247 136.587C95.6441 136.231 95.9554 135.863 96.2551 135.494C100.887 131.048 105.577 126.648 110.309 122.308C110.08 123.001 110.087 123.37 110.337 123.639V123.639ZM50.8999 178.975C45.6685 177.318 39.3338 178.208 37.682 180.094C37.4491 178.423 37.2467 176.749 37.0799 175.071C39.4633 176.374 41.9501 176.723 46.6676 177.34C48.6768 177.602 50.3801 177.821 51.8209 177.957C52.0144 178.471 52.2208 178.933 52.4603 179.375C52.488 179.426 52.5178 179.475 52.5461 179.526L52.5043 179.572C51.9671 179.344 51.4289 179.143 50.8999 178.975H50.8999ZM37.0007 156.519C37.1499 156.034 37.153 155.518 37.0391 154.987C37.2018 153.06 37.405 151.139 37.6455 149.223C37.6393 149.517 37.7343 149.81 37.8637 150.128C39.3181 153.703 43.2477 157.134 48.6043 158.915C49.6035 159.247 50.4607 159.456 51.1991 159.584C50.8742 160.138 50.6253 160.678 50.4604 161.177C48.6343 159.741 46.2836 158.697 43.6165 159.805C42.8907 160.106 42.4598 161.209 42.0856 162.528C39.6217 162.569 37.5628 163.073 36.5822 163.924C36.5875 163.569 36.5856 163.215 36.5953 162.859C36.6506 160.832 36.7527 158.812 36.8965 156.798C36.9358 156.708 36.9711 156.615 37.0007 156.519H37.0007ZM36.5892 166.944C36.6953 167.157 36.8117 167.369 36.9324 167.58C36.8228 167.501 36.7106 167.416 36.5955 167.324C36.5924 167.197 36.5916 167.071 36.5892 166.944ZM40.796 192.886C40.5091 192.849 40.2196 192.822 39.9274 192.806C39.253 189.529 38.6302 186.254 38.1089 182.972C39.4797 185.102 41.717 187.051 44.5669 188.529C43.3023 189.978 42.0482 191.431 40.796 192.886H40.796ZM62.876 168.238C61.092 167.677 58.9985 167.408 56.1011 167.079C55.3669 166.08 54.61 165.344 54.0506 164.815C53.7475 164.528 53.2823 163.959 52.6796 163.294C54.2413 162.803 56.5721 161.929 59.8657 162.014C62.8591 162.091 65.3434 162.929 67.1488 163.683C65.7187 165.195 64.2956 166.714 62.876 168.238V168.238ZM72.9868 157.572C71.2338 156.535 69.3325 155.648 67.331 155.024C67.5255 155.022 67.7159 155.016 67.9177 155.022C70.3997 155.085 72.5315 155.673 74.2174 156.302C73.8072 156.725 73.3963 157.148 72.9868 157.572V157.572Z" fill="#00751B"/>
</g>
<defs>
<clipPath id="clip0_11_578">
<rect width="400" height="312" fill="white"/>
</clipPath>
</defs>
</svg>
