<svg width="452" height="250" viewBox="0 0 452 250" fill="none" xmlns="http://www.w3.org/2000/svg">
<path d="M320.995 84.6158C321.17 84.7933 321.325 84.981 321.461 85.1772L347.388 87.2466L355.322 77.3333L363.783 80.8533L352.256 96.3333L320.455 90.1688C319.654 90.7654 318.633 91.1618 317.528 91.3053C316.424 91.4488 315.288 91.3326 314.273 90.9721C313.257 90.6116 312.409 90.024 311.843 89.2873C311.276 88.5507 311.016 87.6999 311.099 86.8482C311.182 85.9965 311.603 85.1842 312.306 84.5193C313.009 83.8544 313.961 83.3685 315.036 83.1262C316.11 82.8838 317.256 82.8965 318.32 83.1626C319.385 83.4287 320.318 83.9356 320.995 84.6158Z" fill="#A0616A"/>
<path d="M282.581 37H18.3527C17.3976 37 16.4519 37.2244 15.5696 37.6604C14.6872 38.0964 13.8855 38.7355 13.2101 39.5412C12.5348 40.3468 11.9991 41.3033 11.6336 42.3559C11.2681 43.4085 11.08 44.5367 11.08 45.6761V221.309C11.08 222.448 11.2681 223.577 11.6336 224.629C11.9991 225.682 12.5348 226.638 13.2101 227.444C13.8855 228.25 14.6872 228.889 15.5696 229.325C16.4519 229.761 17.3976 229.985 18.3527 229.985H282.581C284.51 229.985 286.36 229.071 287.724 227.444C289.088 225.817 289.854 223.61 289.854 221.309V45.6761C289.854 43.375 289.088 41.1682 287.724 39.5412C286.36 37.9141 284.51 37 282.581 37V37Z" fill="#3F3D56"/>
<path d="M280.103 52.3331H20.8305V226.813H280.103V52.3331Z" fill="white"/>
<path d="M150.245 47.5746C151.714 47.5746 152.905 46.1543 152.905 44.4022C152.905 42.6502 151.714 41.2299 150.245 41.2299C148.777 41.2299 147.586 42.6502 147.586 44.4022C147.586 46.1543 148.777 47.5746 150.245 47.5746Z" fill="white"/>
<path d="M205.956 226.813H20.8305V52.3334L205.956 226.813Z" fill="#F2F2F2"/>
<path d="M297.134 223.64H271.83V221.466C271.83 221.409 271.821 221.353 271.803 221.301C271.785 221.248 271.758 221.201 271.725 221.161C271.691 221.121 271.651 221.089 271.607 221.067C271.563 221.045 271.516 221.034 271.469 221.034H262.793C262.746 221.034 262.699 221.045 262.655 221.067C262.611 221.089 262.571 221.121 262.538 221.161C262.504 221.201 262.478 221.248 262.459 221.301C262.441 221.353 262.432 221.409 262.432 221.466V223.64H257.01V221.466C257.01 221.409 257 221.353 256.982 221.301C256.964 221.248 256.938 221.201 256.904 221.161C256.87 221.121 256.831 221.089 256.787 221.067C256.743 221.045 256.696 221.034 256.648 221.034H247.973C247.925 221.034 247.878 221.045 247.835 221.067C247.791 221.089 247.751 221.121 247.717 221.161C247.684 221.201 247.657 221.248 247.639 221.301C247.621 221.353 247.611 221.409 247.611 221.466V221.466V223.64H242.189V221.466C242.189 221.409 242.18 221.353 242.162 221.301C242.144 221.248 242.117 221.201 242.083 221.161C242.05 221.121 242.01 221.089 241.966 221.067C241.922 221.045 241.875 221.034 241.828 221.034H233.152C233.105 221.034 233.058 221.045 233.014 221.067C232.97 221.089 232.93 221.121 232.897 221.161C232.863 221.201 232.837 221.248 232.818 221.301C232.8 221.353 232.791 221.409 232.791 221.466V221.466V223.64H227.369V221.466C227.369 221.409 227.359 221.353 227.341 221.301C227.323 221.248 227.296 221.201 227.263 221.161C227.229 221.121 227.189 221.089 227.146 221.067C227.102 221.045 227.055 221.034 227.007 221.034H218.332C218.284 221.034 218.237 221.045 218.194 221.067C218.15 221.089 218.11 221.121 218.076 221.161C218.043 221.201 218.016 221.248 217.998 221.301C217.98 221.353 217.97 221.409 217.97 221.466V223.64H212.548V221.466C212.548 221.409 212.539 221.353 212.521 221.301C212.503 221.248 212.476 221.201 212.442 221.161C212.409 221.121 212.369 221.089 212.325 221.067C212.281 221.045 212.234 221.034 212.187 221.034H203.511C203.464 221.034 203.417 221.045 203.373 221.067C203.329 221.089 203.289 221.121 203.256 221.161C203.222 221.201 203.196 221.248 203.177 221.301C203.159 221.353 203.15 221.409 203.15 221.466V221.466V223.64H197.728V221.466C197.728 221.409 197.718 221.353 197.7 221.301C197.682 221.248 197.655 221.201 197.622 221.161C197.588 221.121 197.548 221.089 197.505 221.067C197.461 221.045 197.414 221.034 197.366 221.034H188.691C188.643 221.034 188.596 221.045 188.552 221.067C188.509 221.089 188.469 221.121 188.435 221.161C188.402 221.201 188.375 221.248 188.357 221.301C188.339 221.353 188.329 221.409 188.329 221.466V221.466V223.64H182.907V221.466C182.907 221.409 182.898 221.353 182.88 221.301C182.861 221.248 182.835 221.201 182.801 221.161C182.768 221.121 182.728 221.089 182.684 221.067C182.64 221.045 182.593 221.034 182.546 221.034H114.588C114.541 221.034 114.494 221.045 114.45 221.067C114.406 221.089 114.366 221.121 114.332 221.161C114.299 221.201 114.272 221.248 114.254 221.301C114.236 221.353 114.227 221.409 114.227 221.466V221.466V223.64H108.804V221.466C108.804 221.409 108.795 221.353 108.777 221.301C108.759 221.248 108.732 221.201 108.699 221.161C108.665 221.121 108.625 221.089 108.581 221.067C108.537 221.045 108.49 221.034 108.443 221.034H99.7676C99.7201 221.034 99.6731 221.045 99.6292 221.067C99.5854 221.089 99.5455 221.121 99.512 221.161C99.4784 221.201 99.4518 221.248 99.4336 221.301C99.4154 221.353 99.4061 221.409 99.4061 221.466V221.466V223.64H93.9839V221.466C93.9839 221.409 93.9746 221.353 93.9564 221.301C93.9383 221.248 93.9116 221.201 93.8781 221.161C93.8445 221.121 93.8047 221.089 93.7608 221.067C93.717 221.045 93.67 221.034 93.6225 221.034H84.947C84.8995 221.034 84.8525 221.045 84.8087 221.067C84.7648 221.089 84.725 221.121 84.6914 221.161C84.6578 221.201 84.6312 221.248 84.613 221.301C84.5949 221.353 84.5855 221.409 84.5855 221.466V221.466V223.64H79.1634V221.466C79.1634 221.409 79.154 221.353 79.1359 221.301C79.1177 221.248 79.0911 221.201 79.0575 221.161C79.0239 221.121 78.9841 221.089 78.9402 221.067C78.8964 221.045 78.8494 221.034 78.8019 221.034H70.1265C70.079 221.034 70.032 221.045 69.9881 221.067C69.9443 221.089 69.9044 221.121 69.8709 221.161C69.8373 221.201 69.8107 221.248 69.7925 221.301C69.7743 221.353 69.765 221.409 69.765 221.466V221.466V223.64H64.3429V221.466C64.3429 221.409 64.3335 221.353 64.3153 221.301C64.2972 221.248 64.2705 221.201 64.237 221.161C64.2034 221.121 64.1636 221.089 64.1197 221.067C64.0758 221.045 64.0288 221.034 63.9814 221.034H55.3059C55.2585 221.034 55.2115 221.045 55.1676 221.067C55.1237 221.089 55.0839 221.121 55.0503 221.161C55.0168 221.201 54.9901 221.248 54.972 221.301C54.9538 221.353 54.9445 221.409 54.9445 221.466V221.466V223.64H49.5223V221.466C49.5223 221.409 49.5129 221.353 49.4948 221.301C49.4766 221.248 49.45 221.201 49.4164 221.161C49.3828 221.121 49.343 221.089 49.2992 221.067C49.2553 221.045 49.2083 221.034 49.1608 221.034H40.4854C40.3895 221.034 40.2976 221.08 40.2298 221.161C40.162 221.241 40.1239 221.351 40.1239 221.466V223.64H34.7017V221.466C34.7017 221.409 34.6924 221.353 34.6742 221.301C34.6561 221.248 34.6294 221.201 34.5959 221.161C34.5623 221.121 34.5225 221.089 34.4786 221.067C34.4348 221.045 34.3878 221.034 34.3403 221.034H25.6648C25.569 221.034 25.477 221.08 25.4092 221.161C25.3415 221.242 25.3034 221.351 25.3034 221.466V223.64H8.67542C6.37455 223.64 4.16793 224.731 2.54098 226.672C0.914021 228.613 0 231.245 0 233.99V238.67C5.48009e-06 241.415 0.914021 244.047 2.54098 245.988C4.16793 247.929 6.37455 249.019 8.67542 249.019H297.134C299.435 249.019 301.641 247.929 303.268 245.988C304.895 244.047 305.809 241.415 305.809 238.67V233.99C305.809 232.631 305.585 231.285 305.149 230.029C304.713 228.774 304.074 227.633 303.268 226.672C302.463 225.711 301.506 224.948 300.454 224.428C299.401 223.908 298.273 223.64 297.134 223.64V223.64Z" fill="#94989B"/>
<path d="M306.363 113.49C307.351 113.677 307.8 114.708 307.351 115.646L304.477 122.771C304.117 123.802 303.129 124.083 302.321 123.615L296.213 119.677C295.404 119.115 295.045 117.896 295.404 116.865L296.841 113.302C297.201 112.365 298.368 111.708 299.267 111.896L306.363 113.49M302.321 128.958C303.129 128.396 304.117 128.771 304.567 129.802L307.441 136.927C307.8 137.958 307.351 138.896 306.453 139.083L299.446 140.677C298.458 140.865 297.38 140.302 297.021 139.271L295.584 135.708C295.225 134.677 295.584 133.458 296.392 132.896L302.321 128.958M309.956 142.927C310.136 141.896 311.124 141.427 312.022 141.896L318.849 144.896C319.837 145.271 320.107 146.302 319.658 147.24L315.795 153.521C315.256 154.365 314.088 154.74 313.1 154.365L309.687 152.865C308.789 152.49 308.16 151.271 308.339 150.333L309.956 142.927M324.778 147.146C324.239 146.302 324.598 145.271 325.586 144.802L332.413 141.802C333.401 141.427 334.3 141.896 334.479 142.833L336.006 150.146C336.186 151.177 335.647 152.302 334.659 152.677L331.246 154.177C330.257 154.552 329.09 154.177 328.551 153.333L324.778 147.146M338.162 139.177C337.174 138.99 336.725 137.958 337.174 137.021L340.049 129.896C340.408 128.958 341.396 128.583 342.294 129.052L348.403 133.083C349.211 133.646 349.57 134.865 349.211 135.896L347.774 139.458C347.415 140.396 346.247 141.052 345.348 140.865L338.162 139.177ZM342.205 123.708C341.396 124.271 340.408 123.896 339.959 122.865L337.084 115.74C336.725 114.708 337.174 113.771 338.072 113.583L345.079 111.99C346.067 111.802 347.145 112.365 347.504 113.396L348.942 116.958C349.301 117.896 348.942 119.208 348.133 119.771L342.205 123.708ZM334.569 109.74C334.389 110.771 333.401 111.24 332.503 110.771L325.676 107.771C324.688 107.396 324.419 106.365 324.868 105.427L328.641 99.1458C329.179 98.3021 330.347 97.9271 331.335 98.3021L334.749 99.8021C335.647 100.177 336.276 101.396 336.096 102.333L334.569 109.74M319.748 105.521C320.287 106.365 319.927 107.396 318.939 107.865L312.112 110.865C311.214 111.24 310.226 110.771 310.046 109.833L308.519 102.521C308.339 101.49 308.878 100.365 309.866 99.9896L313.28 98.4896C314.268 98.1146 315.436 98.4896 315.975 99.3333L319.748 105.521" fill="#3F3D56"/>
<path d="M322.263 102.615C309.687 102.615 299.536 113.208 299.536 126.333C299.536 139.458 309.687 150.052 322.263 150.052C334.839 150.052 344.989 139.458 344.989 126.333C344.989 113.208 334.839 102.615 322.263 102.615ZM322.263 141.24C314.358 141.24 307.98 134.583 307.98 126.333C307.98 118.083 314.358 111.427 322.263 111.427C330.168 111.427 336.545 118.083 336.545 126.333C336.545 134.583 330.168 141.24 322.263 141.24V141.24Z" fill="#3F3D56"/>
<path d="M322.263 107.865C312.471 107.865 304.567 116.115 304.567 126.333C304.567 136.552 312.471 144.802 322.263 144.802C332.054 144.802 339.959 136.552 339.959 126.333C339.959 116.115 332.054 107.865 322.263 107.865ZM322.263 133.365C318.58 133.365 315.526 130.177 315.526 126.333C315.526 122.49 318.58 119.302 322.263 119.302C325.946 119.302 329 122.49 329 126.333C329 130.177 325.946 133.365 322.263 133.365Z" fill="#94989B"/>
<path d="M322.263 112.271C314.807 112.271 308.789 118.552 308.789 126.333C308.789 134.115 314.807 140.396 322.263 140.396C329.718 140.396 335.737 134.115 335.737 126.333C335.737 118.552 329.718 112.271 322.263 112.271ZM322.263 133.365C318.58 133.365 315.526 130.177 315.526 126.333C315.526 122.49 318.58 119.302 322.263 119.302C325.946 119.302 329 122.49 329 126.333C329 130.177 325.946 133.365 322.263 133.365Z" fill="#3F3D56"/>
<path d="M354.41 2.33593L356.238 0.798443C356.29 0.755164 356.331 0.703683 356.359 0.646958C356.387 0.590234 356.402 0.529381 356.402 0.467896C356.402 0.406412 356.388 0.345508 356.36 0.288677C356.332 0.231846 356.291 0.180209 356.239 0.136733C356.188 0.0932564 356.126 0.0587942 356.059 0.0353293C355.991 0.0118643 355.919 -0.000137781 355.846 1.19322e-06C355.773 0.000140168 355.7 0.0124215 355.633 0.0361431C355.566 0.0598647 355.504 0.0945566 355.453 0.138229L353.625 1.67569L351.798 0.138229C351.746 0.0945566 351.685 0.0598647 351.618 0.0361431C351.55 0.0124215 351.478 0.000140168 351.405 1.19322e-06C351.332 -0.000137781 351.259 0.0118643 351.192 0.0353293C351.124 0.0587942 351.063 0.0932564 351.011 0.136733C350.96 0.180209 350.919 0.231846 350.891 0.288677C350.863 0.345508 350.849 0.406412 350.849 0.467896C350.849 0.529381 350.863 0.590234 350.892 0.646958C350.92 0.703683 350.961 0.755164 351.013 0.798443L352.841 2.33593L351.026 3.86246C350.974 3.90574 350.933 3.95722 350.905 4.01394C350.876 4.07067 350.862 4.13152 350.862 4.193C350.862 4.25449 350.876 4.31539 350.904 4.37222C350.932 4.42905 350.973 4.48069 351.024 4.52417C351.076 4.56764 351.137 4.60211 351.205 4.62557C351.272 4.64903 351.345 4.66104 351.418 4.6609C351.491 4.66077 351.563 4.64848 351.631 4.62476C351.698 4.60104 351.759 4.56634 351.811 4.52267L353.625 2.99614L355.44 4.52267C355.544 4.60957 355.685 4.6582 355.832 4.65792C355.978 4.65764 356.119 4.60848 356.223 4.52119C356.327 4.4339 356.385 4.31558 356.385 4.19213C356.386 4.06868 356.328 3.95015 356.225 3.86246L354.41 2.33593Z" fill="white"/>
<path d="M364.139 240.11L359.44 240.077L357.36 224.473L364.295 224.522L364.139 240.11Z" fill="#A0616A"/>
<path d="M366.262 248.108L365.387 238.289L364.16 238.22L359.155 237.932L357.545 237.841L357.514 240.667L350.009 244.951C349.68 245.139 349.421 245.402 349.263 245.709C349.104 246.015 349.052 246.354 349.113 246.685C349.174 247.015 349.346 247.324 349.607 247.576C349.869 247.828 350.21 248.013 350.592 248.108C350.781 248.157 350.977 248.181 351.174 248.181L360.515 248.246L360.597 248.108L362.151 245.459L362.719 248.108L362.749 248.263L366.277 248.289L366.262 248.108Z" fill="#2F2E41"/>
<path d="M413.614 237.222L409.122 238.383L401.54 224.036L408.17 222.322L413.614 237.222Z" fill="#A0616A"/>
<path d="M414.151 235.17L412.954 235.416L408.082 236.409H408.077L406.513 236.732L407.499 239.437L401.881 245.424C401.639 245.686 401.488 245.999 401.447 246.328C401.406 246.658 401.475 246.991 401.647 247.289C401.819 247.587 402.086 247.839 402.42 248.015C402.753 248.192 403.138 248.287 403.532 248.289C403.74 248.288 403.947 248.262 404.146 248.211L404.544 248.108L413.077 245.902L413.634 242.826L415.214 245.347L418.583 244.474L414.151 235.17Z" fill="#2F2E41"/>
<path d="M354.687 108.905L345.72 130.829L345.424 132.584C343.164 134.389 346.003 134.983 344.938 135.459C343.874 135.935 343.158 137.269 344.593 137.508C346.027 137.746 350.651 223.259 356.751 226.58C362.85 229.9 366.562 232.301 365.442 227.44C364.991 225.481 365.629 214.979 366.552 203.135C366.657 201.793 368.31 200.372 366.876 199.067C365.442 197.762 367.053 196.904 367.143 195.821C368.429 180.355 369.915 165.087 369.915 165.087C369.915 165.087 379.421 192.552 381.89 190.426C384.358 188.3 383.381 193.535 384.136 195.099C384.766 196.406 382.076 198.974 386.029 199.013C389.982 199.053 399.266 225.75 400.207 225.719C402.073 225.659 407.318 225.829 410.432 225.289C411.97 225.023 405.143 204.811 399.442 187.357C398.988 185.965 396.513 185.933 398.105 183.245C399.696 180.558 391.778 163.171 392.458 162.366C394.261 160.232 394.948 159.304 393.169 159.164C391.391 159.025 390.865 159.845 390.769 157.775C390.673 155.704 390.366 150.599 390.366 150.599C390.366 150.599 389.078 130.406 380.056 119.249L379.287 112.62L354.687 108.905Z" fill="#2F2E41"/>
<path d="M355.096 109.374C347.325 110.324 334.615 116.121 343.452 103.353L352.743 83.8575C345.935 79.4105 351.655 71.1931 357.36 62.9806L370.608 51.8359H382.116L385.159 61.5738C388.921 68.3888 389.401 76.1643 386.499 83.2705C384.605 87.8998 387.214 97.0835 386.283 97.8333C384.238 99.4794 385.467 98.814 386.283 101.49C387.099 104.167 387.663 104.951 386.283 106.167C386.499 110.667 386.283 112.667 386.283 112.667L380.232 117.667L355.096 109.374Z" fill="#659F41"/>
<path d="M379.121 49.5483C385.872 47.3396 389.217 40.945 386.591 35.2655C383.966 29.586 376.365 26.7724 369.614 28.981C362.863 31.1897 359.518 37.5844 362.144 43.2639C364.769 48.9434 372.37 51.757 379.121 49.5483Z" fill="#A0616A"/>
<path d="M392.014 53.6006C393.798 55.7479 394.991 58.2022 395.507 60.7855C394.07 61.5591 392.397 61.9653 390.69 61.9551C390.632 61.7672 390.575 61.5792 390.508 61.3912C390.014 59.9356 389.278 58.5458 388.324 57.2627C388.454 58.6463 388.232 60.0375 387.67 61.3425C386.768 60.9978 385.802 60.7881 384.815 60.7229C384.01 60.7228 383.217 60.8801 382.497 61.1824C381.662 58.8501 380.892 56.7057 380.346 55.1671C380.329 59.0241 373.609 62.3868 366.277 61.8995C366.012 61.7602 368.669 55.4177 368.412 55.2715C367.825 54.9443 367.254 54.5892 366.683 54.2411C369.083 51.1221 371.689 47.7803 371.243 47.279C371.276 47.8987 368.644 50.8784 365.781 53.6911C364.192 52.7095 373.22 36.7383 368.76 35.4434C368.685 36.0073 367.701 36.0073 366.501 35.889C366.184 34.9585 365.713 34.0702 365.102 33.2503C365.181 34.0762 365.063 34.9072 364.754 35.694C363.569 35.6943 362.388 35.7993 361.229 36.0073C360.961 35.6524 360.665 35.3128 360.343 34.9908C360.375 35.3832 360.361 35.7773 360.302 36.1674C359.119 36.3833 358.142 36.6339 358.001 36.8358C357.075 36.5503 358.655 35.2624 358.076 34.594C356.603 32.9231 358.788 30.4864 360.17 28.7597C363.008 25.223 369.24 23.9976 373.651 26.1211C373.849 25.5432 374.867 25.1603 376.175 24.9027C376.729 24.7999 377.296 24.7555 377.863 24.7704C383.491 24.854 391.303 28.7597 391.609 33.487C391.634 33.9605 391.675 34.4756 391.717 35.0256C392.114 40.3169 391.626 45.1974 395.921 49.0683C397.476 50.4677 397.493 57.0956 396.897 60.5071C395.35 59.1355 394.249 53.8025 392.014 53.6006Z" fill="#2F2E41"/>
<path d="M423.88 241.675C424.118 241.684 424.353 241.632 424.554 241.525C424.755 241.418 424.912 241.261 425.004 241.077C425.096 240.892 425.118 240.688 425.067 240.493C425.017 240.297 424.896 240.119 424.721 239.983L424.642 239.718C424.652 239.696 424.663 239.675 424.673 239.654C424.913 239.178 425.314 238.772 425.826 238.488C426.339 238.203 426.94 238.053 427.554 238.055C428.168 238.056 428.768 238.211 429.278 238.499C429.788 238.786 430.185 239.195 430.421 239.672C431.361 241.576 432.557 243.484 432.852 245.498C432.982 246.388 432.927 247.29 432.69 248.165C434.898 244.113 436.044 239.71 436.052 235.253C436.052 234.134 435.978 233.017 435.83 231.905C435.708 230.994 435.539 230.089 435.322 229.191C434.139 224.317 431.598 219.749 427.909 215.862C426.123 215.043 424.679 213.782 423.771 212.251C423.442 211.7 423.21 211.113 423.081 210.506C423.282 210.529 423.84 207.948 423.689 207.789C423.969 207.431 424.472 207.253 424.778 206.903C426.303 205.164 428.404 205.468 429.5 207.831C431.843 208.826 431.866 210.475 430.428 212.062C429.514 213.071 429.388 214.437 428.586 215.518C428.668 215.607 428.754 215.693 428.837 215.782C430.346 217.414 431.661 219.167 432.764 221.016C432.495 218.945 432.815 216.85 433.697 214.904C434.591 213.09 436.266 211.562 437.742 209.994C438.132 209.573 438.662 209.259 439.264 209.091C439.867 208.923 440.515 208.909 441.127 209.051C441.739 209.193 442.287 209.484 442.702 209.888C443.117 210.292 443.381 210.79 443.459 211.32C443.462 211.343 443.465 211.367 443.468 211.39C443.249 211.494 443.035 211.604 442.825 211.721C442.561 211.869 442.357 212.081 442.239 212.328C442.121 212.576 442.094 212.848 442.163 213.108C442.231 213.369 442.392 213.605 442.623 213.788C442.854 213.97 443.146 214.09 443.459 214.13L443.491 214.134C443.413 214.799 443.275 215.457 443.079 216.104C444.971 222.261 440.885 224.504 435.051 224.605C434.922 224.66 434.797 224.716 434.668 224.769C435.776 227.41 436.471 230.161 436.735 232.953C436.885 234.6 436.876 236.254 436.709 237.9L436.719 237.842C437.141 236.012 438.302 234.36 440.004 233.166C442.533 231.419 446.105 230.776 448.833 229.371C449.123 229.214 449.46 229.131 449.804 229.13C450.149 229.129 450.486 229.212 450.777 229.367C451.068 229.522 451.3 229.745 451.446 230.007C451.591 230.27 451.645 230.562 451.599 230.849L451.588 230.911C451.182 231.05 450.786 231.211 450.403 231.391C450.184 231.495 449.969 231.606 449.759 231.722C449.496 231.871 449.291 232.082 449.173 232.33C449.055 232.577 449.028 232.849 449.097 233.11C449.166 233.37 449.326 233.607 449.558 233.789C449.789 233.972 450.08 234.091 450.394 234.132L450.426 234.136C450.449 234.139 450.469 234.141 450.492 234.144C449.797 235.54 448.822 236.824 447.609 237.942C446.426 243.317 441.343 243.827 435.906 242.262H435.903C435.307 244.442 434.442 246.565 433.324 248.595H424.111C424.078 248.509 424.049 248.42 424.019 248.334C424.872 248.379 425.728 248.336 426.568 248.206C425.884 247.501 425.201 246.79 424.517 246.084C424.502 246.071 424.488 246.057 424.474 246.042C424.128 245.681 423.778 245.323 423.431 244.962L423.431 244.961C423.412 243.854 423.563 242.75 423.88 241.675L423.88 241.675Z" fill="#00751B"/>
<path d="M320.836 248.619C320.836 248.686 320.852 248.752 320.882 248.815C320.913 248.877 320.957 248.933 321.014 248.981C321.07 249.028 321.138 249.066 321.212 249.092C321.285 249.117 321.365 249.131 321.445 249.13H450.94C451.102 249.13 451.256 249.076 451.371 248.98C451.485 248.884 451.549 248.754 451.549 248.619C451.549 248.483 451.485 248.353 451.371 248.257C451.256 248.161 451.102 248.107 450.94 248.107H321.445C321.365 248.106 321.285 248.12 321.212 248.145C321.138 248.171 321.07 248.209 321.014 248.256C320.957 248.304 320.913 248.36 320.882 248.422C320.852 248.485 320.836 248.551 320.836 248.619Z" fill="black"/>
<path d="M337.987 122.651C337.594 122.067 337.358 121.418 337.295 120.749C337.233 120.08 337.345 119.408 337.625 118.78C337.905 118.152 338.345 117.582 338.914 117.113C339.484 116.643 340.169 116.284 340.921 116.061L362.601 78.2916L370.674 83.2091L348.059 119.161C348.421 120.249 348.295 121.411 347.707 122.426C347.118 123.441 346.107 124.24 344.866 124.67C343.624 125.1 342.238 125.132 340.97 124.76C339.702 124.388 338.641 123.638 337.987 122.651V122.651Z" fill="#A0616A"/>
<path d="M371.858 66.5589C369.856 66.3913 367.839 66.717 366.053 67.4964C364.267 68.2758 362.789 69.4752 361.799 70.9486L352.909 84.1781C352.909 84.1781 372.42 91.4276 377.094 86.2324C379.064 84.0429 380.283 80.3584 381.035 76.8281C381.292 75.6409 381.255 74.4217 380.925 73.2472C380.595 72.0728 379.98 70.9684 379.118 70.0038C378.256 69.0392 377.166 68.2351 375.917 67.6422C374.667 67.0494 373.285 66.6805 371.858 66.5589V66.5589Z" fill="#659F41"/>
<rect x="0.319374" y="225.333" width="305.655" height="24.6667" rx="12.3333" fill="#3F3D56"/>
</svg>
