<svg width="46" height="44" viewBox="0 0 46 44" fill="none" xmlns="http://www.w3.org/2000/svg">
<path d="M28.9589 18.97C29.7039 18.2156 30.1162 17.2052 30.1068 16.1564C30.0975 15.1076 29.6674 14.1044 28.9091 13.3627C28.1508 12.6211 27.125 12.2004 26.0527 12.1913C24.9804 12.1822 23.9473 12.5854 23.1759 13.314M41.1712 26.444H6.10906C5.84157 26.4438 5.58132 26.529 5.36795 26.6868C5.15458 26.8446 4.99977 27.0662 4.9271 27.318L2.1542 36.912C1.98231 37.5068 1.95368 38.1324 2.07056 38.7398C2.18744 39.3472 2.44665 39.9199 2.82784 40.4128C3.20903 40.9058 3.70185 41.3056 4.2676 41.581C4.83336 41.8564 5.45667 41.9998 6.08861 42H40.2632C40.8952 41.9998 41.5185 41.8564 42.0842 41.581C42.65 41.3056 43.1428 40.9058 43.524 40.4128C43.9052 39.9199 44.1644 39.3472 44.2813 38.7398C44.3982 38.1324 44.3695 37.5068 44.1976 36.912L41.1712 26.444ZM41.1712 26.444V14.224V26.444ZM5.18067 26.444V6C5.18067 4.93913 5.61156 3.92172 6.37855 3.17157C7.14555 2.42143 8.18581 2 9.2705 2H23.1759L5.18067 26.444ZM21.131 36H25.2208H21.131ZM34.744 7.656L28.9589 13.314L34.744 7.656ZM40.527 7.656C40.1497 8.03804 39.6985 8.34277 39.1995 8.55241C38.7005 8.76204 38.1638 8.87239 37.6208 8.877C37.0777 8.88162 36.5392 8.78041 36.0366 8.57929C35.5339 8.37816 35.0773 8.08115 34.6933 7.70558C34.3093 7.33001 34.0056 6.8834 33.8 6.39182C33.5943 5.90023 33.4909 5.37351 33.4956 4.8424C33.5003 4.31128 33.6131 3.7864 33.8275 3.29838C34.0418 2.81037 34.3534 2.36899 34.744 2L40.527 7.656Z" stroke="black" stroke-width="3" stroke-linecap="round" stroke-linejoin="round"/>
</svg>
